<?xml version="1.0" encoding="utf-8"?>
<!-- Generator: Adobe Illustrator 18.0.0, SVG Export Plug-In . SVG Version: 6.00 Build 0)  -->
<!DOCTYPE svg PUBLIC "-//W3C//DTD SVG 1.1//EN" "http://www.w3.org/Graphics/SVG/1.1/DTD/svg11.dtd">
<svg version="1.1" id="Layer_1" xmlns="http://www.w3.org/2000/svg" xmlns:xlink="http://www.w3.org/1999/xlink" x="0px" y="0px"
	 viewBox="0 0 635.6 320.3" enable-background="new 0 0 635.6 320.3" xml:space="preserve">
<g opacity="0.2">
	<path d="M0,238c0.4-0.1,0.9,0,1.2-0.2c1.4-0.8,2.6-0.7,3.9,0.1c1.4,0.8,2.5,0.1,2.6-1.5c0-0.8-0.1-1.6-0.1-2.4c0-2.4,0.9-3,3.3-2.9
		c4.6,0.1,9.2,0,13.8-0.1c0.5,0,1.1-0.3,1.5-0.7c1.4-1.3,2.6-2.8,4.1-3.9c0.9-0.7,2.2-1.2,3.3-1.3c2.3-0.2,2.7-0.3,3.2-2.6
		c0.6-2.7,0.8-5.5,1.3-8.2c0.1-0.8,0.5-1.6,0.8-2.4c0.2,0,0.3,0,0.5,0c0.3,0.5,0.7,1,0.8,1.6c0.3,2.1,0.4,4.2,0.7,6.3
		c0.2,1.4,0.6,2.9,1.2,4.2c0.2,0.5,1.3,1,1.9,1c2.3-0.2,3.9,0.6,5.4,2.3c1.8,2,4.3,3.6,5.9,5.7c1.9,2.6,4.1,5.3,3.8,9
		c-0.2,1.7,0,3.5,0,5.2c0,1.1,0.3,1.9,1.4,2.1c1.2,0.3,1.5,1.1,1.5,2.2c0,6.4,0,12.8,0,19.2c0,0.7,0.2,1.4,0.3,2.1
		c0.2,0.1,0.4,0.1,0.6,0.2c0.7-1.3,1.4-2.6,2.2-3.8c0.5-0.7,1.2-1.6,1.8-1.6c0.6,0,1.3,1,1.8,1.7c0.9,1.2,1.6,2.5,2.3,3.6
		c1-1.5,1.8-2.8,2.8-4c0.3-0.4,1-0.8,1.5-0.8c1.4,0,2.7,1,4.3,0.4c0.2-0.1,0.7,0.6,0.9,1c0.4,1,1.1,1.1,2.1,0.8
		c0.6-0.2,1.3-0.4,1.8-0.3c1.2,0.3,2.2,0.2,3-0.9c0.2-0.2,1.2,0,1.8,0.2c0.7,0.2,1.3,0.4,2,0.7c0.2-0.7,0.4-1.4,0.4-2.1
		c0-41.4,0-82.7,0.1-124.1c0-2.4,0.3-2.7,2.7-3.1c2.7-0.5,5.4-1.2,8.2-1.5c3.8-0.4,7.5-0.8,11.3,1.3c5.3,2.9,11.1,5,16.7,7.5
		c1.4,0.6,2.2,1.5,2.2,3.1c0,4.9,0,9.8,0,14.8c0,36.1,0,72.1,0,108.2c0,1.9,0,1.5,1.8,1.2c2.6-0.5,3.3-1.6,3.2-4.1
		c-0.1-2,3.6-3.6,5.7-2.7c2.1,0.9,2.1,0.9,2.9-1.2c0.3-0.6,0.5-1.3,1-1.8c0.8-0.8,1.3-1.5,1.3-2.7c0-0.4,0.8-1.2,1.3-1.2
		c2.4-0.2,4.7-0.3,7.1-0.4c1.1,0,2.3,0.3,3.3-0.1c3.8-1.3,7.7-0.3,11.6-0.5c2.5-0.1,5.1,0.8,7.7,1.2c1.6,0.2,3.1,0.3,4.7,0.3
		c1.7,0,2.8,0.5,3.3,2.2c0.3,1.1,0.9,2.1,1.5,3.1c0.2,0.4,0.9,0.7,1.2,0.6c0.4-0.1,0.9-0.7,0.9-1.1c0.1-0.8,0-1.6-0.1-2.4
		c-0.5-2.7,1-4.4,3.8-3.9c2.4,0.4,4.8,1.1,7.2,1.6c0.8,0.1,1.6-0.1,2.5-0.2c0.6-0.1,1.3-0.3,1.9-0.3c2.2,0.3,4.4-0.1,6.6-0.6
		c0.8-0.2,1.8-0.1,2.6,0.1c1.2,0.3,1.8-0.2,2.3-1.3c0.8-1.9,1.6-3.9,2.5-5.8c0.4-0.9,1.1-1.4,2.1-1.3c1,0.1,1.3-0.4,1.6-1.3
		c0.6-1.7,1.3-3.3,2.9-4.4c0.5-0.4,0.8-1.4,0.8-2.2c0.1-7.6,0-15.2,0-22.9c0-2.8,0.7-3.5,3.4-3.8c0.8-0.1,1.6-0.8,2.4-1.3
		c0.7-0.4,1.4-1.1,2.1-1.1c3.9-0.2,7.8-0.2,11.7-0.2c5.2,0,10.4,0,15.6,0.1c0.4,0,1.1,0.2,1.3,0.5c1,1.5,2.4,1.5,3.9,1.4
		c2.8,0,3,0,2.9,2.9c-0.1,4.6-0.5,9.1-0.6,13.7c-0.1,7.8,0,15.7,0,23.5c0,0.9,0.1,1.8,0.3,2.7c0.2,1.1,0.5,1.9,2,1.2
		c1-0.5,1.7-0.1,1.8,1.2c0,0.3,0,0.5,0,0.8c0.2,1.2,1,1.5,2.1,1.4c1.1-0.1,1.2-0.8,1.1-1.7c-0.1-1.2,0.2-2.1,1.6-2.2
		c1.3-0.1,1.6,0.9,1.5,1.9c0,1.4,1,1.6,1.8,1.1c2.1-1.1,4.9-1.5,5-4.8c0-0.4,0.9-1,1.3-1c0.5,0,1.2,0.6,1.4,1.1c0.8,2,0.9,2,2.8,1
		c0.7-0.4,1.7-0.5,2.6-0.5c1.7-0.1,3.5,0.1,5-1.1c0.8-0.6,1.2,0.1,1.4,0.7c0.2,0.6,0.2,1.3,0.4,2c0.3,1.2,1.5,1.9,2.6,1.6
		c1.4-0.3,1.3-1.4,1.1-2.4c-0.3-1.4-0.5-2.6,0.7-3.6c0.2-0.2,0.3-0.5,0.3-0.8c0.3-3.3,0.7-6.6,1-9.8c0.1-0.7,0-1.5,0-2.2
		c0-2.9,0-2.8,2.9-3.5c0.6-0.1,1.5-0.9,1.5-1.4c0-0.5-0.8-1.2-1.4-1.6c-0.4-0.3-1-0.1-1.6-0.2c-1.4-0.1-2.2-1-2.3-2.3
		c-0.1-1.2,0.6-2.1,1.9-2.2c3.1-0.2,6.1-0.4,9.2-0.5c1.2,0,2-0.4,2.7-1.4c1.1-1.6,3-1.3,4.6-1.5c1.9-0.2,3.9-0.3,5.8-0.2
		c2.7,0.2,5.5,0.8,8.2,1.2c1,0.1,2.1,0.2,3.1,0.3c4.2,0.4,8.4,0.8,12.5,1.2c1.4,0.1,2.7,0.3,4.1,0.4c1.4,0.2,1.7-0.8,1.8-1.8
		c0-0.3-0.2-0.5-0.2-0.8c0.2-2.5-0.1-4,3.3-3.5c1.4,0.2,2.9,0.1,4.3,0c1.8,0,2.3-0.5,2.5-2.3c0.1-0.7,0.2-1.4,0.3-2
		c0.5-2.6,0.6-2.6,3.1-2.6c3.4,0,6.8,0,10.2,0c0.6,0,1.2,0.1,1.7,0.3c2.3,1.1,4.7,0.7,7.1,0.3c1.3-0.2,1.7-1.1,1.2-2.3
		c-0.2-0.4-0.3-0.9-0.4-1.3c-0.2-1.2,0.3-2,1.6-2c1.7-0.1,3.4-0.1,5.1,0c1.1,0,1.8,0.6,2,1.8c0.1,1.1,0.7,1.5,1.9,1
		c0.5-0.2,1.3-0.1,1.9,0c1,0.1,2,0.3,2.9,0.3c1,0,1.7,0.3,1.9,1.4c0.2,1,0.7,1.4,1.8,1.5c4.3,0.5,8.6,1.1,12.9,1.7
		c1.1,0.1,2.2,0.4,3.3,0.5c2.7,0.2,3.5,1.2,3.1,3.9c-0.4,2.8,0.1,3.3,2.7,4.2c0.9,0.3,1.7,1.2,2.3,2.1c2.5,4,1,8.4,1.3,12.7
		c0.2,2.7-0.1,5.4-0.2,8.1c-0.1,2.1,0.9,2.8,3.8,2.7c1.7,0,2.2-0.8,2.1-2.7c0-8.6,0-17.1,0-25.7c0-4,0-7.9,0-11.9
		c0-2.2,0.6-2.7,2.8-2.8c7.3-0.5,14.5-1.1,21.8-1.5c4-0.3,8-0.6,12-0.6c2.3,0,4.5,0.8,6.8,1.2c3,0.6,5.9,1.3,8.9,1.8
		c1.6,0.3,2.2,0.9,2.2,2.6c-0.1,14.6,0,29.2,0,43.8c0,0.4,0,0.8,0,1.1c0.2,1,1.7,1.6,2.2,0.7c1.1-1.8,3.2-1.7,4.6-2.8
		c1.2-0.9,2.6-0.6,4.1-0.2c2.2,0.7,2.8,0.2,2.8-1.9c0-23.7,0-47.3,0-71c0-15.3,0.1-30.6,0.1-45.9c0-8.6-0.1-17.1-0.1-25.7
		c0-2.1,0.5-2.6,2.7-2.8c1.1-0.1,2.2-0.3,3.2-0.6c0.4-0.1,0.7-0.5,1.1-0.7c-0.4-0.3-0.7-0.6-1.1-0.9c-0.1-0.1-0.2-0.1-0.3-0.1
		c-2-0.7-2.2-1.4-0.9-3c1.3-1.5,1.2-3.6,0-5.2c-0.4-0.5-0.8-1.4-0.6-1.7c0.3-0.5,1.1-0.8,1.8-0.9c1.6-0.5,3.3-0.8,5-1.3
		c0.4-0.1,0.9-0.5,1.1-0.9c0.4-0.9,1.1-1.2,2-1.1c0.2,0,0.5,0.1,0.6,0c2-1.7,4.4-1.1,6.7-1c0.6,0,1.3-0.8,2-1.3
		c1.1,2,2.4,1.4,3.9,0.4c0.6-0.4,1.5-0.5,2.1-1c0.6-0.5,1.2-1.3,1.4-2.1c0.6-1.8-0.1-3.8,1.3-5.4c0.1-0.1,0-0.4,0-0.6
		c-0.3-2-0.7-3.9-0.7-5.9c0-0.9,0.7-1.9,1.1-2.8c0.2,0,0.4,0.1,0.6,0.1c0.3,0.7,0.8,1.4,0.8,2.1c0,1.9-0.2,3.9-0.2,5.8
		c0,2.3,0.2,4.7,0.4,7c0,0.1,0.1,0.4,0.2,0.4c1.8,0.8,3.7,2.4,5.4,2.3c1.8-0.2,3.1,0.4,4.4,1.1c1.4,0.8,2.4,1.3,3.6-0.2
		c0.6-0.7,1.4-0.4,1.5,0.6c0.2,1.3,0.7,1.7,2.1,2c1.5,0.2,2.8,1.4,4.1,2.1c0.4,0.2,1,0.7,1.2,0.5c1.7-0.8,2.3,0.5,3.1,1.4
		c1,1.2,0.8,2.3,0.5,3.6c-0.3,1.3,0,2.7,0,4c0,1.2,0.1,2.4-0.2,3.5c-0.3,1,0,1.5,0.9,1.7c2.8,0.9,3.1,1.5,3,4.4
		c-0.1,5.1-0.2,10.3-0.2,15.4c0,34.4,0,68.7,0.1,103.1c0,7.6,0,15.1,0,22.7c0,3.1,1.7,3.5,3.5,2.3c1-0.7,1.7-0.4,1.9,0.8
		c0.2,1.5,1,2,2.5,2c1.5-0.1,3-0.1,4.4,0c1.4,0,2.5-0.1,3.6-1.2c0.8-0.8,1.9-0.7,2.6,0.3c0.8,1.2,1.6,0.9,2.4,0
		c1.5-1.6,1.7-1.5,3,0.1c0.3,0.4,0.8,0.7,1.3,0.7c1.8,0.1,3.6,0.1,5.4,0c0.7-0.1,1.5-0.5,2.1-0.9c1.1-0.7,1.9-0.9,3.1,0.1
		c1.8,1.5,3.9,1,6,0.4c0.9-0.3,1.9-0.5,2.8-0.5c1.8,0,2.6-0.7,2.6-2.7c0-12.8,0-25.6,0-38.4c0-2.8,0.3-3.2,3-3.2
		c2.8,0,5.6,0.1,8.4,0.1c0,33.5,0,66.9,0,100.4c-211.9,0-423.7,0-635.6,0C0,292.9,0,265.4,0,238z"/>
</g>
</svg>
