<?xml version="1.0" encoding="utf-8"?>
<!-- Generator: Adobe Illustrator 18.0.0, SVG Export Plug-In . SVG Version: 6.00 Build 0)  -->
<!DOCTYPE svg PUBLIC "-//W3C//DTD SVG 1.1//EN" "http://www.w3.org/Graphics/SVG/1.1/DTD/svg11.dtd">
<svg version="1.1" id="Layer_1" xmlns="http://www.w3.org/2000/svg" xmlns:xlink="http://www.w3.org/1999/xlink" x="0px" y="0px"
	 viewBox="0 0 383.7 320" enable-background="new 0 0 383.7 320" xml:space="preserve">
<g opacity="0.2">
	<path d="M239.4,58.8c1,0.6,1.8,1.1,2.6,1.4c4.1,1.7,8,3.6,12.5,4.1c1.6,0.2,3.1,1,4.6,1.5c1.7,0.6,3.5,0.5,5.3,0.5
		c0.2,0,0.4-0.1,0.5-0.2c0.9-1.4,1.8-2.9,2.5-4.4c0.4-0.9,0.3-1.9,0.5-3.1c0.8,0.2,1.7,0.4,2.4,0.8c0.3,0.2,0.5,0.8,0.5,1.2
		c0.1,0.8,0.1,1.6,0.2,2.5c0.2,2,1.4,2.8,3.4,2.6c2-0.2,3.8-0.9,5.6-1.9c1.3-0.7,2.8-1,4.2-1.5c2.9-1.1,5.9-2.1,8.7-3.5
		c1.6-0.8,2.8-2.2,4.2-3.4c0.4-0.4,0.8-0.8,1.2-1.2c0.2-0.2,0.5-0.3,0.8-0.5c0.1,0.1,0.2,0.1,0.3,0.2c-0.3,0.7-0.7,1.5-1.1,2.4
		c0.5-0.3,0.9-0.5,1.3-0.7c0.3-0.1,0.6-0.1,1-0.1c-0.1,0.3-0.1,0.7-0.2,1c-0.1,0.2-0.2,0.3-0.3,0.5c1,0.4,1.1,0.6,0.4,1.4
		c-0.3,0.4-0.8,0.7-1.4,1.2c1.3,0.5,1,1,0.4,1.6c-0.4,0.4-0.5,1-0.7,1.5c-0.2,0.4-0.3,0.7-0.6,1c-0.2,0.2-0.6,0.3-0.7,0.5
		c-0.3,1.3-1.4,2.1-2.1,3.1c-0.2,0.2-0.3,0.5-0.5,0.6c-0.8,0.5-1.6,1-1.9,2c-0.1,0.2-0.3,0.3-0.5,0.4c-1.1,0.9-2.2,1.9-3.3,2.8
		c-0.1,0.1-0.2,0.3-0.4,0.4c-1.2,0.6-2.5,1.3-3.7,1.9c-0.2,0.1-0.4,0.1-0.5,0.2c-1.1,1-2.4,1.1-3.8,1.4c-1.3,0.3-2.5,0.7-3.7,1
		c1.2,0.3,2.4,0.7,3.6,1c0.4,0.1,0.8,0.3,1.1,0.5c1.1,0.6,1.2,1.3,0.6,2.4c-0.2,0.4-0.3,0.8-0.5,1.2c-0.1,0.2-0.2,0.5-0.4,0.7
		c-0.9,0.7-1.8,1.4-2.6,2.2c0,0-0.1,0-0.1,0.1c-0.4,1.4-1.8,1.7-2.7,2.6c-0.6,0.6-1.4,0.9-2.1,1.3c-1.7,0.9-3.4,0.6-5.2,0.4
		c-1.1-0.1-2.3-0.1-3.5-0.2c-0.3,0-0.7-0.1-1-0.3c-0.5-0.2-0.9-0.4-1.4-0.6c-0.4-0.3-0.8-0.7-1.2-1.1c-0.1-0.1-0.1-0.2-0.1-0.3
		c-1.3-1.2-2.6-2.6-4-3.7c-1.2-0.9-1.3-1.7,0-2.5c1.3-0.8,2.6-1.6,3.9-2.4c0.2-0.2,0.4-0.4,0.6-0.6c-0.3-0.1-0.5-0.3-0.8-0.4
		c-0.7-0.3-1.3-0.1-2-0.1c-1,0.1-2-0.5-3-0.9c-1.3-0.5-2.5-1.2-3.7-1.8c-0.3-0.1-0.7-0.3-0.8-0.6c-0.3-0.8-1-0.9-1.5-1.3
		c-1.1-0.8-2.7-1-3.2-2.6c0-0.1-0.1-0.1-0.1-0.2c-1-0.8-2-1.6-2.9-2.5c-0.4-0.4-0.6-0.9-0.9-1.4c-0.6-0.9-1.1-1.7-1.7-2.6
		c-0.3-0.4-1-0.7-0.5-1.4c0.1-0.1-0.1-0.6-0.3-0.7C239.4,61.5,239.8,60.2,239.4,58.8z"/>
	<path d="M186.4,165.7c0.2,1.2,0.3,2.2,0.5,3.2c0.1,0.4,0.1,0.8,0.7,0.8c0.3,0,0.6,0.5,0.7,0.8c0.7,1.4,1.4,2.9,2.1,4.4
		c1,2.1,2.7,3.5,4.4,5c1.1,0.9,2.2,1.7,3.4,2.5c0.2-0.4,0.3-0.6,0.5-1c0.4,0.6,0.7,1.4,1.2,1.8c1.7,1.3,3.4,2.5,5.2,3.7
		c0.3,0.2,0.6,0.5,1,0.8c1.7,1.3,3.4,2.6,5.1,3.8c0.6,0.4,1,0.2,1.4-0.4c0.1-0.2,0.2-0.5,0.3-0.8c0.5-1.4,0.9-1.7,2.3-1.7
		c1.3,0,2.3,0.7,2.6,1.8c0.2,0.6,0.3,1.1,0.4,1.7c0.2,2.2,1.6,3.6,3,5.1c0.1,0.2,0.3,0.3,0.4,0.5c1.2,2.3,3.1,3.4,5.7,3.2
		c0.3,0,0.7,0,0.8,0.1c0.7,0.9,1.4,0.4,2,0.1c1.8-0.9,3.5-1.9,4.8-3.4c0.4-0.5,0.9-0.8,1.4-1.1c0.3-0.1,0.8-0.2,0.9-0.1
		c0.2,0.2,0.4,0.7,0.3,1c-0.3,0.7-0.7,1.3-1.1,1.8c-0.4,0.5-0.9,0.9-1.4,1.4c0.1,0.1,0.1,0.2,0.2,0.3c0.4-0.1,0.8-0.2,1.1-0.4
		c1-0.6,2-1.2,2.9-1.8c0.3-0.2,0.7-0.5,1-0.5c0.4,0,0.9,0.2,1.3,0.3c-0.1,0.4-0.1,0.8-0.3,1.1c-0.4,0.5-1,0.9-1.5,1.4
		c-0.3,0.2-0.5,0.5-0.7,0.7c0.1,0.1,0.1,0.2,0.2,0.2c0.4-0.1,0.8-0.2,1.2-0.4c0.2-0.1,0.5-0.3,0.7-0.3c0.5,0,1,0.1,1.5,0.1
		c-0.2,0.4-0.2,0.9-0.5,1.3c-0.3,0.4-0.8,0.7-1.4,1.3c0.7,0,1,0,1.4,0c0.9-0.1,1.2,0.3,0.9,1.1c-0.1,0.3-0.2,0.6-0.4,0.8
		c-0.5,0.5-0.7,0.9-0.1,1.4c0.1,0.1-0.1,0.7-0.3,1c-0.1,0.3-0.4,0.6-0.5,0.9c-0.1,0.3-1.7,2.2-2,2.4c-0.3,0.2-0.5,0.5-0.8,0.7
		c-0.2,0.2-0.4,0.6-0.7,0.6c-0.6,0.1-0.7,0.3-0.8,0.8c-0.2,0.8-0.8,1-1.7,0.8c-0.4-0.1-1,0.1-1.5,0.2c-0.3,0.1-0.5,0.2-0.8,0.3
		c-0.2,0.1-0.5,0.1-0.6,0.2c-0.5,1-0.9,0.6-1.4-0.1c-0.1-0.1-0.2-0.2-0.3-0.3c-0.3,0.2-0.6,0.3-0.9,0.5c-0.7,0.3-1.2,0.2-1.3-0.7
		c-0.1-0.6-0.3-0.8-1-0.6c-0.7,0.2-1.8,0.1-2.4-0.3c-1.1-0.6-2-1.6-2.9-2.5c-0.2-0.2-0.4-0.6-0.4-1c0-1.1-0.6-1.7-1.5-2.1
		c-0.8,2-0.4,4,0.1,6c0.6,2.1,1.3,4.1,1.9,6.1c0.1,0.4,0.2,0.7,0.3,1.1c0.1,0.8-0.1,1.3-1.1,1.3c-0.7-0.1-0.8,0.3-0.8,0.8
		c0,1-0.3,1.2-1.3,1.1c-1.1-0.1-2.2-0.4-3.3-0.1c-0.1,0-0.3,0-0.4,0.1c-0.9,0.9-1.5,0.5-2-0.4c0-0.1-0.1-0.2-0.2-0.2
		c-1.4-0.3-1.6-1.3-1.4-2.5c-0.6,0-1.1,0-1.6,0c-0.3,0-0.6-0.2-0.8-0.4c-0.7-1-1.3-2.1-2-3.2c-0.1-0.2-0.1-0.4-0.2-0.5
		c-0.9-1.4-1.9-2.7-2.8-4.2c-0.3-0.5-0.2-1.2-0.2-1.9c0-0.4,0.1-0.8,0-1.1c-0.4-1.2-0.3-1.5,0.7-2.3c0.1-0.1,0.2-0.2,0.3-0.2
		c-0.5-1.7,0-2.2,1.8-2.1c0.1,0,0.2,0,0.3,0c0.6,0,1.6,0.3,1.8,0c0.5-0.7,0.8-1.7,0.8-2.6c0-0.4-0.9-1-1.5-1.1
		c-0.6-0.1-1-0.3-1.5-0.8c-0.7-0.7-1.5-1.2-2-2.1c-0.2-0.3-0.5-0.6-0.7-1c-0.3-0.5-0.4-1-1.1-1c-0.2,0-0.5-0.2-0.6-0.3
		c-0.5-1.1-1.4-1.8-2.1-2.8c-1-1.3-1.8-2.8-2.4-4.5c-0.5-1.4-1.5-2.5-2.2-3.8c-0.2-0.4-0.5-0.8-0.5-1.2c0-1-0.6-1.5-1.2-2
		c-0.4-0.3-0.8-0.7-0.9-1.2c-0.3-1.2-1.2-1.9-2-2.6c-2.3-2-4.3-4.3-5.7-7c-0.2-0.4-0.2-1-0.3-1.5c-0.1-0.9-0.3-1.9-0.4-2.8
		C185.4,167,185.4,166.3,186.4,165.7z"/>
	<path d="M282.2,186.5c-0.1-0.1-0.6-0.2-0.9-0.4c-0.3-0.4-0.7-1-0.6-1.4c0.2-0.7,0-1-0.5-1.4c-0.6-0.5-0.9-1-0.3-1.8
		c0.1-0.2,0.1-0.6,0-0.9c-0.4-1-0.2-1.7,0.9-2.1c1.3-0.5,2.7-0.8,4.1-1.1c1.2-0.2,1.3-0.2,1-1.4c-0.1-0.5-0.2-0.9-0.3-1.2
		c-1.4-0.1-2.8,0-4.1-0.3c-1-0.2-2.1-0.7-2.6-1.9c-0.1-0.3-0.3-0.5-0.5-0.7c-0.9-0.8-1.6-1.6-1.5-3c0-0.3-0.4-0.9-0.8-1
		c-1.4-0.4-2.9-0.7-4.3-1.1c-0.2,0-0.5-0.2-0.5-0.3c-0.2-0.6-0.7-0.4-1.1-0.5c-0.9-0.3-1.9-0.3-2.6-0.6c-0.5-0.3-0.9-0.4-1.5-0.6
		c-0.8-0.2-1.4-0.9-2.1-1.3c-0.1-0.1-0.1-0.2-0.2-0.2c-0.2-0.3-0.7-0.7-0.7-0.9c0.2-0.8,0.3-1.7,1.4-1.8c1.6-0.1,3.2-0.3,4.9-0.4
		c1.6-0.1,3.2-0.2,4.9-0.2c1.7,0.1,3.4,0.2,5,0.5c2.1,0.3,4.3,0.8,6.4,1.3c1.1,0.2,2,0.7,2.4,1.9c0.1,0.3,0.2,0.7,0.5,0.8
		c0.2,0.2,0.7,0.2,0.9,0.1c0.3-0.1,0.5-0.4,0.7-0.6c0.8-0.8,0.7-1.3-0.3-1.8c-0.3-0.1-0.5-0.3-0.8-0.6c0.3-0.2,0.5-0.4,0.6-0.4
		c0.9,0,1.7-0.4,2.4-1c0.3-0.3,1-0.3,1.4-0.1c1.7,0.6,2.4,1.9,2.2,3.8c-0.1,1-0.2,2.1-0.3,3.1c-0.1,0.7,0.3,1.2,1,1.2
		c1.1,0,2.1,0.1,3.2,0c1.1-0.1,2,0.1,2.8,0.7c6,4,11.3,8.7,15.8,14.3c0.2,0.3,0.5,0.6,0.6,0.9c0.7,1.3,0.6,1.8-0.5,2.6
		c-0.1,0.1-0.2,0.1-0.3,0.1c-0.8-0.2-1.7-0.3-2.4-0.6c-0.8-0.4-1.8-0.3-2.3-1.2c0-0.1-0.3,0-0.4,0c-0.2,0-0.5,0.1-0.5,0
		c-0.5-1-1.8-1.1-2.5-1.8c-0.1-0.2-0.3-0.4-0.5-0.4c-1.5,0.2-2.4-1.2-3.6-1.7c-0.8-0.4-1.5-1.2-2.3-1.6c-0.3-0.2-1-0.1-1.4,0.2
		c-1.1,0.6-2.2,0.7-3.3,0.5c-0.2,0-0.3-0.1-0.5,0c-1.4,0.6-2.6-0.3-3.9-0.7c-0.8-0.3-1.2,0.1-1.4,0.7c-0.2,0.7,0.5,0.5,0.9,0.7
		c0.4,0.2,1,0.5,1.2,0.8c1,1.5,1.9,2.9,2.7,4.5c0.2,0.3,0,0.8-0.1,1.2c-0.2,0.5-0.5,1.2-0.9,1.4c-1.3,0.6-2.5,1.1-3.5,2.2
		c-0.1,0.1-0.2,0.1-0.4,0.1c-0.8-0.1-1.4,0.1-2.2,0.3c-0.5,0.2-1.3-0.2-2-0.4c-0.3-0.1-0.7-0.3-1-0.2c-1.2,0.1-1.8-0.1-2.4-1.2
		c-0.2-0.5-0.5-0.5-0.9-0.5c-0.7,0-1.5-0.1-2-0.5C282.4,188.1,282.4,187.3,282.2,186.5z"/>
	<path d="M248.5,231.4c0.5,1.3,1.2,2.6,1.5,4c0.4,1.9,1.4,3.5,2.5,4.9c1.6,1.9,3.4,3.7,5.3,5.4c2.7,2.6,5.4,5.1,8.1,7.6
		c1.9,1.8,3.8,3.5,5.8,5.2c1.7,1.5,4,1.2,5.4-0.5c0.4-0.5,0.7-1,1.1-1.4c0.4-0.3,0.8-0.7,1.2-0.8c0.7-0.3,1.4-0.1,2,0.5
		c0.5,0.6,0.4,1.3,0.2,2c-0.5,1.5-1.1,2.9-1.1,4.6c-0.1,2.1,0.9,3.2,2.7,4c4.3,2.1,8.5,4.3,12.8,6.5c2.3,1.2,4.6,2.5,7,3.5
		c4,1.7,8.2,2.4,12.5,0.9c0.2-0.1,0.5-0.1,0.7-0.1c0.2,0.1,0.5,0.2,0.5,0.4c0,0.2-0.1,0.5-0.3,0.6c-0.1,0.1-0.4,0.2-0.6,0.2
		c-3.7,0.8-7.4,1-11.1,0.4c-1.6-0.3-3.3-0.3-5-0.6c-1.6-0.3-3.1-0.7-4.7-1c-0.1,0-0.2-0.1-0.4-0.1c-1.3,0-2.6,0.1-3.9,0
		c-0.9,0-1.9-0.2-2.8-0.3c-0.4,0-0.7-0.1-1.1-0.2c-0.2,0-0.5,0-0.6-0.1c-0.9-1-2.2-0.9-3.3-1.5c-0.6-0.4-1.4-0.4-2.1-0.7
		c-0.6-0.2-1.3-0.5-1.9-0.7c0,0-0.1,0-0.1,0c-0.3-1.2-1.7-0.9-2.4-1.6c-0.7,0.8-1.4,1.6-2,2.5c-0.4,0.6-0.9,0.9-1.6,1.1
		c-0.5,0.1-1,0.5-1.3,0.9c-0.9,1.4-1.7,2.9-2.6,4.4c-0.7,1.2-1.1,1.4-2.3,0.7c-1.2-0.7-2.3-1.6-3.4-2.5c-0.7-0.6-1.2-1.3-1.7-2
		c-0.5-0.7-0.4-1.3,0.2-1.9c0.8-0.8,1.6-1.5,2.4-2.3c0.7-0.6,1.3-1.2,2-1.8c0.2-0.2,0.5-0.7,0.4-1c-0.5-1.6,0.4-2.6,1.2-3.7
		c0.2-0.3,0.3-0.6,0.4-0.9c0-0.2-0.3-0.5-0.5-0.5c-1.3,0.1-1.8-0.9-2.3-1.8c-0.6-0.9-0.9-1.8-2-2.4c-0.8-0.4-1.2-1.4-1.8-2.2
		c-0.1-0.1-0.2-0.3-0.3-0.4c-1-0.8-1.2-2-1.6-3.1c0-0.1,0-0.1,0-0.2c-0.8-1.6-1.5-3.2-2.4-4.8c-0.7-1.4-1.5-2.8-2.3-4.1
		c-1.2-2-2.5-3.9-3.9-5.8c-1.9-2.5-2.7-5.4-3-8.4c0-0.3,0.1-0.6,0.1-0.9C248.3,231.4,248.4,231.4,248.5,231.4z"/>
	<path d="M241.6,86.7c-0.5,0.1-0.7,0.1-1,0.1c0,0.2,0,0.4,0,0.7c-0.7-0.1-1.4-0.2-2.1-0.4c-0.4-0.1-0.8-0.2-1.1-0.3
		c-0.8-0.3-1.7-0.5-2.4-0.9c-2.1-1.3-4.2-2.8-6.3-4.2c-1.6-1.1-3.2-2.2-4.9-3.1c-0.9-0.5-2-0.8-3.1-0.9c-0.7,0-1.4,0.6-2.1,1
		c-0.1,0,0.1,0.6,0.2,0.8c0.6,0.8,1.3,1.6,2,2.4c0.1,0,0.2-0.1,0.3-0.1c-0.2,0.1-0.4,0.1-0.6,0.2c-0.4,0.2-0.9,0.4-1.3,0.6
		c-1.1,0.5-2.3,1.3-3.5,1.5c-0.7,0.1-1.6,0.3-2.2,0.3c-1.4-0.1-2.8-0.2-4-1c-0.2-0.1-0.4-0.2-0.6-0.4c-0.3-0.2-0.6-0.4-0.9-0.7
		c-0.2-0.2-0.4-0.4-0.7-0.6c-0.2-0.2-0.5-0.5-0.7-0.7c-0.3-0.3-0.5-0.7-0.8-0.9c-0.6-0.4-0.7-0.9-0.7-1.6c0.1-0.4-0.1-0.9-0.3-1.2
		c-0.4-0.5-0.6-0.9-0.1-1.5c0.2-0.3,0.2-0.8,0.1-1.2c-0.2-0.6-0.1-0.9,0.3-1.4c0.3-0.4,0.4-1,0.4-1.5c0.1-0.7,0.2-1.2,1-1.2
		c0.6,0,0.7-0.4,0.6-0.9c0-0.2,0.1-0.5,0.2-0.8c0.2,0.1,0.5,0.2,0.7,0.4c1.4,1.3,2.8,2.6,4.3,3.9c0.2,0.2,0.6,0.2,1,0.1
		c-1.7-1.4-2.3-3.4-3.3-5.2c-1-1.8-2.4-3.3-3.7-4.9c-0.8-1-1.8-2-2.6-3.1c-0.3-0.4-0.3-0.9-0.5-1.4c-0.2-0.4-0.3-0.7-0.5-1.1
		c0.2-0.3,0.4-0.6,0.5-0.9c0.6-0.2,1-0.4,1.7-0.7c0.5,0.3,1.4,0.7,2.2,1.2c3.2,2,6.1,4.2,8.9,6.8c1.4,1.3,1.7,3.1,2.4,4.7
		c0.4,0.8,0.7,1.6,1.2,2.2c0.6,0.8,1.4,1.2,2.4,0.7c0.4-0.2,0.8-0.2,1.2-0.2c1,0,1.5,0.6,1.2,1.6c-0.1,0.5-0.4,1.2,0.5,1.3
		c3.8,0.5,6.5,2.9,9.3,5.2c2.3,2,4.5,4,6.8,6.1C241.2,86.2,241.3,86.4,241.6,86.7z"/>
	<path d="M313.1,46.4c0.2-0.7,0.3-1.2,0.5-1.7c0.3-0.8,0.6-0.9,1.2-0.3c0.2,0.1,0.4,0.4,0.5,0.4c1.2-0.7,1.2,0.4,1.4,1
		c1.3,0.1,1.5,0.4,1.7,1.7c0,0.3,0.3,0.6,0.4,0.8c0.1,0.2,0.3,0.3,0.4,0.5c0.3,0.9,0.5,1.9,0.9,2.7c0.7,1.6,0.6,3.3,0.7,5
		c0.1,1,0.8,1.3,1.7,0.8c2.1-1.2,4.1-2.5,5.4-4.6c0.4-0.6,0.7-1.3,1-1.9c0.2-0.4,0.5-0.9,0.7-1.4c0.2,0.2,0.4,0.4,0.6,0.6
		c0.3-0.5,0.5-0.9,0.8-1.4c1.7,0.5,1.8,0.7,1.9,2.5c0,1,0.3,2,0.3,2.9c0,0.4-0.2,0.8-0.4,1.2c-0.5,1.2-0.3,2.5-1.4,3.6
		c-0.9,0.9-1.4,2.2-2.2,3.2c-0.9,1-1.9,1.9-2.9,2.9c-1-0.5-1.8,1.2-2.9,0.3c-0.2-0.1-0.7,0.2-1.1,0.3c-0.6,0.1-1.1,0.1-1.9,0.1
		c1.5,2.2,2.4,4.7,4.8,5.9c1.2,0.6,1.9,1.7,1.9,3.1c0,0.6-0.9,2.1-1.4,2.1c-0.5-0.1-1.1-0.5-1.5-0.8c-1.4-0.9-2-2.3-2.8-3.6
		c-0.6-1-1.8-1.4-2.8-0.9c-0.2,0.1-0.3,0.4-0.5,0.7c-0.2-0.1-0.5-0.1-0.9-0.2c0.2,0.5,0.3,0.8,0.5,1.3c-0.3,0-0.5,0-0.7,0
		c-0.3-0.2-0.5-0.4-0.8-0.6c-1.3-1.3-1.3-1.7,0-3.1c-0.3-0.2-0.6-0.5-0.9-0.6c-2.4-1.1-4-3.1-5.4-5.3c-0.5-0.7-0.6-1.7-0.9-2.6
		c-0.6-1.4-1.4-2.4-3.1-2c-0.1,0-0.2-0.1-0.5-0.2c0.5-0.6,1-1,1.4-1.5c0.5-0.6,1.1-0.9,1.9-0.7c0.7,0.2,1.3,0.4,1.9,0.7
		c0.6,0.4,1,0.9,1.7,1.5c0.3-1,0.2-1.7-0.3-2.2c-0.9-0.9-1-1.9-0.4-3c0.1-0.3,0.1-0.6,0.1-0.9c-0.1-2.5-0.3-5-0.4-7.4
		c0-0.3,0.2-0.6,0.4-0.9c0.3,0.2,0.6,0.3,0.8,0.5C312.7,45.3,312.8,45.7,313.1,46.4z"/>
	<path d="M145.2,128.7c0-0.4,0-0.7,0-0.8c0.4-0.6,0.6-0.9,0.9-1.3c0.1-0.1,0.4-0.2,0.6-0.1c3.2,0.6,6.3,1.1,9.5,1.7
		c1.4,0.3,2.8,0.8,4,1.5c1.1,0.6,2,1.7,3,2.6c0.4,0.4,0.8,0.8,1.2,1.1c1.4,1.1,2,1.1,3.5,0.1c0.4-0.3,0.9-0.7,1.4-0.7
		c0.6,0,1.2,0.4,1.2,1.2c0,0.6,0.2,1.1,0.9,0.9c2.9-0.8,5.8-0.4,8.7,0.5c3.4,1.1,6.8,2.2,10.2,3.2c0.1,0,0.3,0.1,0.4,0.2
		c-0.3,0.4-0.5,0.7-0.7,1.1c-1.3,0.7-2.7,0.7-4.2,0.8c-2.3,0.1-4.4-0.5-6.7-0.8c-1.3-0.2-2.6-0.3-3.9-0.5c-1.1-0.2-2.2-0.5-3.3-0.5
		c-1.1,0-2.2,0.2-3.2,0.5c-0.6,0.2-0.9,1-1.3,1.6c-0.1,0.1,0.2,0.5,0.3,0.6c0.8,0.4,1.7,0.6,2.6,1c0.2,0.1,0.3,0.1,0.7,0.2
		c-0.3,0.3-0.6,0.4-0.8,0.6c-0.3,0.3-0.6,0.7-0.9,1c-1.1,0.9-1.7,2.5-3.2,3c-0.3,0.1-0.5,0.3-0.7,0.5c0,0-0.1,0.1-0.1,0.2
		c-0.3,0.4-3.6,1.1-4.1,0.9c-0.3-0.1-0.6-0.1-0.9-0.1c-0.4-0.1-0.8-0.2-1.1-0.3c-0.4-0.1-0.7-0.1-1.1-0.2c-0.8-0.3-1.7-0.6-2.3-1.2
		c-0.6-0.7-1.2-1.5-1.7-2.3c-0.4-0.7-0.8-1.6-0.9-2.3c-0.1-1-0.1-2-0.4-3c-0.1-0.2,0.3-0.6,0.5-0.7c0.6-0.3,0.6-0.5,0.3-1
		c-0.1-0.2-0.1-0.5-0.1-0.8c0.3,0,0.5,0,0.8,0.1c1.7,0.6,3.5,1.2,5.2,1.8c0.3,0.1,0.6-0.1,0.9-0.2c0-0.1,0-0.2,0-0.3
		c-0.5-0.2-1.1-0.2-1.6-0.5c-0.8-0.5-1.6-1-2.2-1.6c-1.8-1.9-4.3-2.8-6.5-3.9c-1.1-0.5-2.1-1-3.2-1.6c-0.4-0.3-0.7-0.7-1.1-1.1
		C145.8,129.1,145.5,128.9,145.2,128.7z"/>
	<path d="M100.1,263.4c-1.1,0.5-1.1,0.7-0.5,1.7c0.4,0.6,0.6,1.3,0.9,2c0.3,0.8,0,1.3-0.6,2c-0.8,0.8-2.1,0.3-2.6,1.4
		c-0.9-0.2-1.8,0-2.6,0.3c-0.1,0-0.4-0.1-0.5-0.3c-0.5-0.7-1.1-0.9-1.9-0.8c-0.1,0-0.1,0-0.2,0c-0.7-0.7-1.5-1.3-2.2-2.1
		c-0.9-1.1-0.6-2.7-1.1-4c-0.3-0.8,0.5-1.8,1.3-2c1.5-0.4,3-0.6,4.4,0c0.7,0.3,0.9-0.2,1.2-0.6c0.3-0.5-0.2-0.6-0.5-0.8
		c-2-1.1-3.6-2.5-3.8-4.9c-0.1-0.8,0.2-1.7,0.5-2.5c0.4-1,0.5-1.8,0-2.8c-0.7-1.4-1.2-3-1.7-4.5c-0.4-1-0.8-2-1.1-3
		c-0.2-0.5-0.2-1-0.2-1.5c0-0.3,0.2-0.8,0.4-0.9c0.3-0.2,1-0.2,1.2,0c1,0.9,1.9,2,2.8,3c2.6,3,4.5,6.3,6.3,9.8
		c0.2,0.4,0.3,0.8,0.4,1.2c0.1,0.4,0,0.8,0,1.4c0.4-0.3,0.7-0.6,1-0.8c0.6-0.5,1.1-1.2,1.8-1.6c1.3-0.8,2.6,0,2.7,1.5
		c0,0.5,0.3,0.9,0.4,1.5c-1.6,0-1.8,0.3-1.6,2.3c0.3,0,0.7-0.1,1-0.1c5.4-0.2,10.7,0.7,15.8,2.3c0.8,0.3,1.3,0.7,1,1.5
		c-0.2,0.4-0.8,0.8-1.2,0.9c-1.6,0.2-3.3,0.3-4.9,0.4c-1,0.1-1.9,0.2-2.9,0.3c-0.1,0-0.3,0-0.4,0.1c-1,0.1-2.5,0.8-3.3,1.4
		c-2.7,2.1-4.7,2-7.7,0.1C100.9,264.9,100.5,264,100.1,263.4z"/>
	<path d="M207.7,273.8c-0.1,0.4-0.3,0.8-0.4,1.3c0.4,0,0.9-0.1,1.2,0.1c0.5,0.3,0.8,0.7,1.1,1.1c0.1,0.1-0.2,0.6-0.4,0.8
		c-0.3,0.4-0.6,0.8-1,1.2c-0.8,0.7-1.6,1.2-2.4,1.9c-0.9,0.7-1.9,1.4-2.9,2.1c-0.7,0.5-1.5,0.9-2.2,1.4c-0.3,0.2-0.6,0.6-0.7,1
		c-0.4,1.2-0.6,2.5-1.1,3.6c-0.2,0.6-0.9,0.9-1.3,1.4c-0.1,0.2-0.1,0.5-0.2,0.7c0.2,0,0.5,0,0.7-0.2c1.5-0.8,3.2-0.9,4.8-0.8
		c1.1,0.1,1.7,1.3,1.4,2.4c-0.1,0.2-0.3,0.6-0.2,0.7c0.9,1.1,0.1,2.3-0.1,3.3c-0.1,0.6-1.1,1.1-1.3,1.7c-0.3,0.8-0.5,1.4-1.5,1.4
		c-0.2,0-0.6,0.3-0.7,0.6c-0.5,1-1,1.2-2,0.8c-0.2-0.1-0.5,0.2-0.8,0.2c-0.5,0-1,0-1.5,0c-0.3,0-0.7-0.2-0.8,0
		c-0.5,0.4-0.8,0.2-1.2-0.2c-0.2-0.2-0.4-0.5-0.7-0.5c-1-0.1-1.2-0.8-1.1-1.5c0.1-0.9,0.2-1.8,0.4-2.6c0.4-1.3,0.4-1.3-0.8-1.9
		c-0.9-0.4-1.7-0.9-2.5-1.3c-1.7-0.9-2.7-2.4-3.4-4.2c-0.1-0.3-0.2-0.5-0.3-0.8c-0.2-0.6-0.5-0.8-1.1-0.3c-0.1,0.1-0.4,0.1-0.7,0.2
		c0-0.2-0.1-0.5-0.1-0.7c0-0.3,0.2-0.7,0.2-1c-0.2-1.8,1.2-2.9,2.9-2.2c0.7,0.3,1.3,0.7,2,1.2c0.6,0.5,1,0.2,1.2-0.4
		c0.1-0.4,0.2-0.8,0.2-1.2c-0.1-1,0.4-1.8,1.2-2.4c4.1-3.3,8.5-5.9,13.4-7.7C206,272.6,207,272.7,207.7,273.8z"/>
	<path d="M169.9,201c0.2-0.5,0.4-0.9,0.6-1.2c0.1-0.2,0.3-0.3,0.5-0.4c0.1,0.2,0.3,0.4,0.3,0.6c0.1,0.8,0.1,1.5,0.2,2.3
		c0,0.3,0.2,0.5,0.4,0.8c0.4-1.2-0.2-2.7,1.2-3.4c0.1,0,0.2,0.1,0.4,0.1c-0.1,0.8-0.1,1.7-0.2,2.5c-0.1,1-0.2,2-0.2,3
		c0,0.4,0.3,0.9,0.4,1.3c0.1,0.6,0,1.2,0.1,1.8c0,0.4,0,1.1,0.2,1.2c0.4,0.2,1,0,1.4-0.1c0.3-0.1,0.4-0.5,0.7-0.6
		c0.3-0.2,0.7-0.4,1-0.3c0.3,0.1,0.5,0.6,0.5,0.9c-0.1,0.9,0,1.7,0.9,2.1c1.2,0.5,2.2,0.2,3-0.7c0.4-0.4,0.8-0.7,1.3-1.2
		c0.4,1.3,1.1,1,1.8,0.6c0.9-0.5,1.9-0.8,2.7-1.5c1-0.9,1.7-2,2.5-3c0.2,1-0.1,1.9-1,2.8c1.1-0.1,1.4-1.2,2.3-1.6
		c-0.1,0.4-0.2,0.9-0.3,1.4c0.4,0,0.7,0,1.2,0c-0.3,0.9-0.6,1.7-0.9,2.6c0,0.1-0.2,0.3-0.2,0.3c0.9,1.2-0.6,1.6-0.8,2.4
		c-0.3,1-1.2,1.8-2.1,2.5c-0.3,0.3-1,0.2-1.5,0c-0.9-0.3-1.1-0.3-1.3,0.6c-0.1,0.3-0.3,0.8-0.6,0.9c-1,0.4-2,0.8-3,1
		c-0.6,0.1-1,0.3-1.4,0.9c-0.6,0.8-1,1.7-2.1,2.1c-0.8,0.3-1.5,1.1-2.3,1.6c-0.3,0.2-0.7,0.3-1,0.4c-0.2,0.1-0.6-0.1-0.6,0.1
		c-0.6,0.9-1.6,0.6-2.4,0.5c-1.1-0.2-2.4-0.6-3.3-1.3c-0.5-0.4-0.9-1-1.5-1.4c-0.6-0.4-0.8-1.3-1.1-2c-0.5-1.2-0.8-2.6-0.5-3.8
		c0.2-0.8-0.2-1.9,0.7-2.6c0.1-0.1,0-0.6,0-0.9c-0.2-0.9-0.5-1.7,0.6-2.2c0.2-0.1,0.3-0.4,0.3-0.5c-0.1-0.2-0.3-0.4-0.5-0.5
		c-1.3-0.5-1.4-1.3-0.4-2.3c0.1-0.1,0.3-0.2,0.3-0.4c0.2-0.8,0.3-1.6,0.6-2.3c0.2-0.6,0.6-1.3,1.1-1.7c0.5-0.4,0.7-0.7,0.8-1.3
		C168.9,200.3,169.4,200.4,169.9,201z"/>
	<path d="M97.7,32.8c0.2-0.8,0.3-1.6,0.7-2.2c0.5-0.9,1.4-0.6,2.2-0.5c0.3,0,0.5,0.2,0.9,0.3c0-0.4,0.1-0.7,0.1-1
		c0.4-2.7,0.8-5.4,1.3-8c0.2-1.1,0.8-1.8,1.9-1.9c0.6,1,1,2,1.1,3.2c0,1,0.2,1.9,0.3,2.9c0,0.2,0.3,0.5,0.4,0.6
		c0.2,0,0.5-0.2,0.7-0.3c1.2-1.4,2.3-2.9,3.4-4.4c0.1-0.2,0.3-0.3,0.4-0.5c0.5-0.5,1-0.8,1.7-0.3c0.7,0.4,0.6,1,0.4,1.5
		c-0.4,1.5-0.9,2.9-1.4,4.4c-0.5,1.4-1,2.9-1.4,4.3c-0.1,0.4,0.1,0.9,0.2,1.3c0.2,0.7,0.5,1.4,0.8,2c0.6,1.3-0.1,2.4-0.7,3.5
		c-0.2,0.4-0.6,0.8-1,1.3c0.9,0.2,1.6,0.4,2.4,0.6c1.4,0.3,1.9,1.4,1.3,2.8c-0.2,0.4-0.1,0.9-0.2,1.3c0,0.3-0.1,0.6-0.2,0.8
		c-0.3,0.5-0.4,1.2-0.9,1.4c-1,0.6-1.6,1.9-3,1.8c-0.3,0-0.6,0.2-1,0.4c-0.2,0.1-0.5,0.5-0.6,0.4c-1.1-0.3-2.3-0.1-3.2-0.8
		c-0.1-0.1-0.1-0.2-0.2-0.2c-1.1,0.2-1.4-0.7-2.1-1.2c-0.5-0.4-0.7-0.8-0.5-1.3c0.4-0.9,0.8-1.9,1.4-2.7c0.4-0.7,0.4-1-0.2-1.5
		c-1.3-1.2-2.7-2.4-3.2-4.2c-0.2-0.8-0.4-1.6-0.5-2.4C99,32.7,99,32.7,97.7,32.8z"/>
	<path d="M148.1,92.4c0.7-1,1-2,2-2c0.8,0,1.6,0.5,2.5,0.8c0,0.1,0.1-0.1,0-0.1c-0.7-1.3,0.2-2.4,0.5-3.5c0.5-1.5,1-3.1,1.4-4.6
		c0.1-0.2,0.2-0.4,0.5-0.8c0.2,0.6,0.3,1,0.4,1.5c0.4-0.4,0.7-0.8,1-1.2c0.1,0,0.2,0.1,0.3,0.1c-0.1,0.5-0.1,1.1-0.2,1.8
		c0.5-0.3,0.9-0.5,1.4-0.9c0.3,1.2,0.6,2.3,0.9,3.3c0.2,1,0.3,2,0.5,3c0,0.1,0.5,0.3,0.7,0.2c0.8-0.5,1.6-1.1,2.5-1.6
		c2.1-1.4,3.5-3.2,4-5.7c0.1-0.3,0.2-0.5,0.5-0.8c0,0.7-0.1,1.4-0.1,2.1c0.1,0,0.1,0.1,0.2,0.1c0.4-0.7,0.9-1.4,1.3-2.1
		c0.1,0,0.2,0,0.3,0.1c-0.1,0.4-0.2,0.9-0.4,1.3c-0.2,0.5-0.4,0.9-0.7,1.3c0.1,0.1,0.1,0.1,0.2,0.2c0.7-0.5,1.3-0.9,2.1-1.4
		c-0.3,2.5-1.3,4.7-2.3,6.8c-0.5,1.1-1.3,1.8-2.2,2.5c-1.1,0.9-2.2,1.8-3.3,2.6c-0.5,0.4-1.2,0.5-1.9,0.6c-0.7,0.2-0.8,0.5-0.3,1
		c0.8,0.9,1.7,1.5,2.8,1.9c1.4,0.5,2.2,1.9,2,3.4c0,0.3,0,0.6,0,0.9c0.1,1,0.2,2-0.9,2.5c-1-0.2-1.9-0.4-2.8-0.6
		c-1-0.3-1.7-1-2.4-1.7c-0.6-0.7-0.9-1.2-0.8-2.2c0-0.2-0.8-0.8-1.2-0.8c-0.8-0.1-1.1-0.4-1.3-1.1c0-0.2-0.2-0.4-0.4-0.5
		c-1.9-0.8-2.7-2.6-3.5-4.2C150.7,93.3,150,92.2,148.1,92.4z"/>
	<path d="M348.2,143.1c0.6-0.5,0.9-1.5,2.1-1.4c0.9,0,1.4,0.6,2,1.1c1.5,1.4,3,2.8,4.5,4c1.6,1.3,2.8,2.8,3.7,4.6
		c0.8,1.5,2,2.7,3.1,4c0.2,0.2,0.5,0.5,0.6,0.7c0.2,0.5,0,1-0.6,0.8c-1.1-0.4-2.2-0.7-3.1-1.3c-0.8-0.5-1.4-1.3-2-2
		c-0.3-0.4-0.6-0.5-1-0.2c-1.2,1-2.6,1.3-4.1,1.3c-1.3,0-2.5-0.1-3.8,0c-0.6,0-1.2,0.3-1.9,0.2c-1.5,0-3-0.1-4.5-0.3
		c-1.3-0.2-2.6-0.6-3.8-0.8c-0.9-0.1-1.8-0.1-2.6-0.2c-0.7-0.1-1.5,0-1.4-1.2c0-0.1-0.6-0.3-0.9-0.5c0.9-0.6-0.5-0.5-0.3-1.2
		c0.8-0.3,2,0.9,3-0.4c-0.8,0-1.4,0-2,0c0-0.1,0-0.2-0.1-0.3c0.5-0.3,1.1-0.6,1.8-1c-0.8-0.1-1.3-0.2-1.9-0.3c0-0.1,0-0.3-0.1-0.4
		c0.9-0.3,1.7-0.7,2.6-0.9c1.9-0.3,3.8-0.4,5.7-0.7c1.4-0.2,2.7-0.7,4.1-1c0.3-0.1,0.5-0.2,0.8-0.3c0.8,0,1.5-0.3,1.4-1.3
		C349.2,143.9,348.7,143.6,348.2,143.1z"/>
	<path d="M108.6,175.4c-0.8,1.1-1.5,2.2-2.3,3.2c-0.1,0.2-0.2,0.4-0.1,0.6c0.1,1.3-0.4,2.2-1.5,2.9c-0.2,0.1-0.4,0.4-0.5,0.7
		c-0.2,1.1-0.9,1.5-1.6,1.8c-0.6-0.3-1.1-0.4-1.5-0.7c-0.2-0.1-0.3-0.4-0.3-0.6c0-2.3-0.1-4.7,0.1-7c0.1-0.9,0.7-1.8,1.2-2.7
		c0.3-0.5,0.2-0.8-0.3-1.1c-0.9-0.5-1.7-1.1-2.5-1.7c-0.2-0.1-0.3-0.5-0.3-0.6c0.3-0.3,0.6-0.7,1-0.8c0.6-0.1,1.3,0,1.9,0
		c0.6,0,0.9-0.3,0.8-1c-0.3-1.2-0.8-2.4-0.7-3.6c0.1-2.3,0.6-4.5,0.9-6.8c0-0.2,0.1-0.4,0.2-0.5c0.2-0.9,0.3-1.9,1.6-1.8
		c0.2,0,0.4-0.2,0.8-0.5c0.4,1,0.8,1.9,1.1,2.8c0.4,1.3,1,2.6,0.9,4.1c0,0.7,0.3,1.5,0.5,2.3c0.4,1.2,0.8,2.4,1.2,3.6
		c0.1-0.1,0.3-0.3,0.4-0.6c0.6-1.1,2-1.2,2.5-0.1c0.9,1.6,1.7,3.2,2,5.1c0.3,1.7-1.7,4.9-3.2,5.1c-0.6,0.1-1,0.1-1.3-0.4
		C109.4,176.5,109,176,108.6,175.4z"/>
	<path d="M334.8,99.4c0.7,1.4,1.3,2.5,1.8,3.7c0.8,1.9,2.1,3.2,3.9,4.1c0.4,0.2,0.6,0.6,1,0.9c1.5,1.2,3,2.5,4.5,3.7
		c0.6,0.5,1,0.6,1.4-0.3c0.2-0.3,0.8-0.7,1.2-0.6c0.4,0.1,1.1,0.6,1.1,1c0.2,1.6,1.2,2.7,2,4c0.8,1.2,3.1,1.8,4.4,1
		c0.7-0.4,1.4-1,2.1-1.4c0.3-0.2,0.6-0.1,0.9-0.2c-0.1,0.3-0.1,0.6-0.3,0.9c-0.1,0.2-0.3,0.4-0.3,0.8c0.4-0.2,0.8-0.4,1.2-0.6
		c0.4-0.1,0.8-0.2,1.2-0.2c-0.1,0.4-0.2,0.8-0.3,1.2c0,0,0.2,0,0.4,0c0.2,0.1,0.4,0.2,0.4,0.3c0,0.8-0.1,1.7-0.1,2.5
		c0,1-0.7,1.5-1.3,2.2c-0.9,1-2,1.5-3.2,1.7c-0.8,0.1-1.7,0.4-2.4-0.5c-0.1-0.2-0.4-0.2-0.7-0.2c-1.2-0.2-2.2-0.7-2.4-2.1
		c0-0.2-0.3-0.4-0.4-0.5c-0.1,0-0.2,0.1-0.3,0.1c0,0.8-0.1,1.6,0,2.4c0.1,0.9,0.4,1.8,0.7,2.7c0.4,1.3-0.5,2.6-1.9,2.6
		c-0.3,0-0.7-0.1-1,0c-1,0.3-1.4-0.3-1.8-1c-0.1-0.2-0.1-0.4-0.3-0.5c-1.6-0.5-1.8-2.1-2.6-3.2c-1-1.3-0.9-2.8-0.2-4.1
		c0.1-0.2,0.5-0.4,0.8-0.4c0.7,0,1.3,0,1.6-0.9c0.2-0.9-0.4-1.1-1-1.3c-0.3-0.1-0.6-0.4-0.8-0.6c-0.8-1.1-1.7-2.1-2.5-3.2
		c-0.5-0.8-1-1.6-1.4-2.5c-0.9-2.2-2.1-4.2-3.7-5.9c-1.3-1.3-2.3-2.9-1.9-4.9C334.7,99.9,334.7,99.7,334.8,99.4z"/>
	<path d="M298.7,119c1.5-0.1,2.9-0.3,4.2-0.2c0.4,0,1.1,0.4,1.2,0.7c0.3,1,0.3,2,0.5,3c0.2,1.2-0.9,1.6-1.2,2.5
		c0,0.1-0.3,0.3-0.4,0.3c-0.7-0.1-1.1,0.2-1.4,0.8c-0.1,0.1-0.3,0.2-0.4,0.2c-0.8,0-1.7,0.1-2.5-0.1c-0.6-0.2-1.1-0.8-1.5-1.4
		c-0.4-0.5-0.7-1.2-0.9-1.9c-0.2-0.8-0.6-1.3-1.4-1.6c-0.9-0.4-1.9-0.7-2.6-1.4c-0.9-0.8-1.7-1.7-2.4-2.7c-0.5-0.7-0.8-1.3-1.8-1.2
		c0-0.3,0-0.6,0-0.8c-0.1-0.5-0.5-1.1,0.2-1.3c0.6-0.2,1.3-0.2,1.9-0.2c0.4,0,0.8,0.4,1.2,0.6c0.1-0.2,0.2-0.4,0.2-0.6
		c-0.4-1.3,0.3-2.2,1-3.1c1.9-2.6,4.2-4.9,6.7-6.9c0.3-0.3,0.7-0.5,1.1-0.7c0.6-0.3,1.3,0.3,1.2,0.9c-0.3,0.9-0.7,1.9-1.1,2.8
		c-0.6,1.2-1.2,2.4-1.9,3.9c1.3-0.3,2.3-0.6,3.3-0.8c1.4-0.3,2.8-0.5,4.2-0.8c0.3-0.1,0.7-0.1,1,0c0.6,0.1,0.9,0.8,0.4,1.3
		c-1,0.8-2,1.6-3.1,2.3c-1.1,0.7-2.3,1.2-3.4,1.8c-0.2,0.1-0.4,0.4-0.5,0.6c0,1.3-0.6,2.4-1.5,3.3
		C298.9,118.6,298.8,118.8,298.7,119z"/>
	<path d="M19.5,96.5c0.1-0.6-0.4-1.4,0.6-2c0.8-0.5,1.4-0.2,2,0.2c0.4,0.2,0.8,0.5,1.3,0.9c0.2-0.6,0.3-1.1,0.5-1.5
		c0.2-0.6,0.4-1.2,0.8-1.6c2.7-2.2,5.6-3.9,8.9-5.2c0,0,0.1,0,0.1,0c1.4-0.5,1.8-0.1,1.7,1.4c0.3,0,0.6,0,0.8,0
		c0.6,0.1,0.9,0.9,0.4,1.3c-0.8,0.7-1.6,1.4-2.5,2c-0.7,0.6-1.5,1.2-2.2,1.8c-0.3,0.2-0.7,0.4-1,0.6c-0.2,0.2-0.6,0.4-0.6,0.7
		c-0.2,1.3-0.5,2.5-1.6,3.4c-0.1,0.1-0.1,0.2-0.2,0.3c0,0.1,0,0.2,0,0.3c0.8-0.2,1.6-0.4,2.4-0.6c1.7-0.4,2.1,0.2,2.3,1.9
		c0.2,2.2-0.7,3.5-2.4,4.8c-1.2,0.9-2.1,0.6-3.3,0.6c-0.6,0-1,0-1.6-0.3c-0.6-0.3-0.7-0.7-0.7-1.3c0-0.5-0.1-1,0.2-1.4
		c0.5-0.9,0-1.3-0.7-1.6c-1.8-0.8-3.3-1.8-4-3.8C20.7,97.1,20,96.9,19.5,96.5z"/>
	<path d="M233.6,148.6c0.7-0.9,1.9-1.4,2.8-1c3.2,1.4,6.6,2.6,9.1,5.2c1.1,1.2,2,2.5,3.1,3.7c0.6,0.7,1.4,1.3,2.1,2
		c0.2,0.2,0.5,0.4,0.7,0.7c0.1,0.1,0,0.4,0,0.6c-0.2,0-0.5,0-0.6-0.1c-0.4-0.3-0.8-0.7-1.2-1.1c-1.3-1.2-3-1.2-4.5-1.7
		c-0.1,0-0.4,0-0.5,0.1c-0.6,0.5-1.1,1.1-1.7,1.6c-1.4,1.1-2.9,1.7-4.8,1.5c-0.2,0-0.5-0.1-0.6-0.2c-0.5-0.4-0.8-0.4-1.1,0.2
		c-0.1,0.2-0.6,0.2-0.8,0.1c-0.7-0.3-1.3-0.8-2-1c-0.7-0.2-0.6-0.5-0.3-1c0.7-1.1,1.3-2.2,1.9-3.3c0.3-0.5,0.1-0.7-0.4-0.8
		c-0.5-0.1-1-0.2-1.5-0.2c-0.3-0.1-0.6-0.1-0.9-0.2c-0.2-0.1-0.4-0.3-0.5-0.5c0.2-0.2,0.3-0.4,0.6-0.6c0.8-0.5,1.6-0.9,2.3-1.3
		c1-0.6,1-1,0.2-1.7C234.6,149.3,234.1,149,233.6,148.6z"/>
</g>
</svg>
