<?xml version="1.0" encoding="utf-8"?>
<!-- Generator: Adobe Illustrator 18.0.0, SVG Export Plug-In . SVG Version: 6.00 Build 0)  -->
<!DOCTYPE svg PUBLIC "-//W3C//DTD SVG 1.1//EN" "http://www.w3.org/Graphics/SVG/1.1/DTD/svg11.dtd">
<svg version="1.1" id="Layer_1" xmlns="http://www.w3.org/2000/svg" xmlns:xlink="http://www.w3.org/1999/xlink" x="0px" y="0px"
	 viewBox="0 0 510 320" enable-background="new 0 0 510 320" xml:space="preserve">
<g opacity="0.2">
	<path d="M292.6,83.3c0.6,1.5,1.4,1.2,2.5,0.5c0.7-0.5,1.6-0.7,2.5-0.9c0.3-0.1,0.7,0.1,1.1,0.1c0.4,0,1.1,0.2,1.2,0.1
		c0.2-0.5,0.3-1.1,0.1-1.5c-0.4-0.6-1.1-1-1.6-1.5c-0.5-0.4-1-0.9-1.5-1.3c0.1-0.1,0.2-0.3,0.3-0.4c0.4,0.2,0.7,0.4,1.1,0.5
		c1,0.3,2,0.5,3,0.8c0.8,0.2,1.7,0.2,2.5,0.5c1.5,0.6,2.9,1.4,4.4,2c0.4,0.2,0.8,0,1.3,0c-0.1-0.4-0.2-0.9-0.5-1.2
		c-0.6-0.6-1.3-1-2-1.5c-0.1,0-0.2-0.1-0.2-0.1c-0.2-0.3-0.6-0.6-0.5-0.8c0.4-1.7-2.1-2.8-1-4.7c0.5-0.8,0.3-2,0.3-3
		c0-0.9-0.1-1.6,1-1.9c1.3-0.3,2.9,0.1,2.9,1c0.1,2.5,1.6,4.4,2.4,6.5c0.7,1.7,1.4,3.3,2.4,4.8c0.6,0.8,0.6,2.2,0.5,3.4
		c-0.1,1-0.7,1.9-1.1,2.9c0.8,0.4,1.5,0.4,1.8-0.4c0.9-1.7,1.9-3.4,0.7-5.4c-0.4-0.7-0.2-1.3,0.6-1.7c0.2-0.1,0.3-0.5,0.4-0.8
		c-0.3-0.1-0.6-0.3-0.9-0.2c-1.8,0.3-2.5,0-2.8-2c-0.2-1.4-0.6-2.5-1.7-3.4c-0.4-0.3-0.6-1-0.5-1.5c0.1-0.4,0.6-0.8,0.9-1.2
		c0.3,0.3,0.7,0.5,0.9,0.9c0.6,1.3,0.9,1.5,1.9,1c-0.3-0.5-0.6-1-0.8-1.6c0.5-0.2,1-0.3,1.6-0.6c-0.4-0.6-0.8-1.2-1.1-1.8
		c0.1-0.1,0.2-0.3,0.3-0.4c1.2,0.5,2.5,0.9,3.7,1.4c0.8,0.4,1.5,0.7,2.5-0.3c-0.7-0.5-1.3-1.1-2-1.3c-1.6-0.4-1.8-1.9-2.5-3
		c-0.1-0.1,0.5-1,0.9-1.1c1.5-0.7,3.2-1.2,5-1.8c-0.6-0.5-0.9-1-1.3-1.3c-1.3-0.9-1.5-1.4-0.8-2.7c0.7-1.4,1.6-2.8,3.2-3.5
		c0.5-0.2,0.8-0.9,1-1.4c0.7-1.3,1.5-1.5,3-1.1c0.4,0.1,1.1-0.4,1.6-0.8c0.5-0.4,0.8-1,1.4-1.5c0.5-0.4,0.8-0.8,0.3-1.4
		c-0.9-1.1-0.9-2.5-0.7-3.8c0.1-0.5,0.8-1.4,1.1-1.4c0.6,0,1.6,0.5,1.8,1c0.4,1,0.9,1.1,1.7,0.8c0.8-0.3,1.2,0.1,1.2,0.9
		c0,0.3,0,0.7,0.1,1c0.1,0.2,0.4,0.5,0.5,0.5c0.2-0.1,0.5-0.3,0.6-0.5c0.9-2.1,2.1-2.6,4.1-1.5c0.7,0.4,1.4,0.6,2.1,1
		c0.5,0.3,0.8,0.8,1.2,1.1c0.1,0.1,0,0.2,0.1,0.2c2.1,1.9,0.6,4,0.1,5.9c-0.4,1.5-0.8,2.9-1.2,4.4c-0.1,0.2,0,0.6,0.2,0.8
		c0.1,0.1,0.5,0,0.7,0c1-0.4,1.5-1.4,1.3-2.5c-0.2-0.8,0.3-1.2,1.1-0.9c1.4,0.6,2.7,0.1,4-0.3c1.2-0.4,2.4-0.6,3.6-0.8
		c0.2,0,0.4,0.2,0.6,0.3c0.5,0.3,1,0.9,1.4,0.9c1.4,0,3,0.5,4.1-0.8c0.2-0.2,0.1-0.9,0-1.2c-0.4-0.9,0.1-1.6,0.8-1.5
		c1.6,0.2,3.3-0.5,4.8,0.5c1.4,1,2.9,2,3,3.9c0,0.3,0.2,0.7,0.5,0.8c1,0.6,2,1.3,3,1.8c0.3,0.2,1,0.3,1.1,0.1
		c0.2-0.3,0.3-0.8,0.3-1.3c-0.1-0.6-0.4-1.1-0.7-1.9c0.5,0.1,0.8,0.1,1.1,0.2c0.9,0.4,1.6,0.2,2.2-0.4c0.6-0.7,1.3-1,2.3-0.7
		c1,0.3,1.8-0.3,2.1-1c0.2-0.5-0.4-1.2-0.7-1.8c-0.2-0.4-0.9-1-0.8-1.1c0.5-0.7,1.1-1.7,1.8-1.9c1.4-0.3,2.8-0.1,4.3-0.1
		c0.6,0,1.2-0.1,1.6-0.3c2.1-1.3,2.6-1.1,4.1,0.8c0.5,0.6,1.6,0.7,2.4,1c0.7,0.2,1.5,0.3,2.1,0.6c0.8,0.5,1.3,0.4,2.1,0
		c1.3-0.8,2.7-1.5,4.1-2c1.4-0.5,3.8,0.9,4.1,2.4c0.2,1,0.7,1.3,1.7,1.2c0.6,0,1.3,0.2,2.1,0.3c0.4-2.4,2.5-1.8,4-2.3
		c0.9-0.3,1.8-0.5,1.8-1.7c0-0.2,0.5-0.5,0.7-0.7c0.2,0.3,0.5,0.6,0.7,0.9c0.2,0.4,0.1,1,0.4,1.2c0.8,0.6,1.7,1,2.5,1.3
		c0.2,0.1,0.8-0.2,0.9-0.5c0.1-0.3,0-0.8-0.2-1c-0.5-0.6-1.2-1-1.7-1.6c-0.4-0.4-0.5-1-0.8-1.5c0.5-0.2,0.9-0.5,1.4-0.6
		c1-0.3,2-0.7,3-0.8c1.5-0.1,3.1-0.2,4.7,0c3.1,0.4,6.2,1.1,9.3,1.5c1.5,0.2,2.5,0.8,3.4,1.9c0.3,0.4,0.7,0.6,1,0.9
		c0.1-0.1,0.2-0.2,0.3-0.2c-0.1-0.3-0.1-0.6-0.2-0.8c-0.7-1.2-0.2-2.3,1.3-2.5c1.3-0.2,3.4,1.3,3.7,2.6c0,0.2,0.1,0.5,0.1,0.6
		c-1.2,2.1,0.8,3.3,1.4,4.8c0.1,0.3,0.3,0.7,0.2,0.9c-0.2,0.3-0.6,0.4-0.9,0.5c-0.5,0.1-1.1,0.3-1.6,0.3c-0.4,0-0.9-0.1-1.2-0.3
		c-0.8-0.7-1.5-0.7-2.2,0.1c-0.5,0.6-1,0.7-1.6,0.3c-0.3-0.2-0.8-0.1-1.2-0.1c0.2,0.4,0.2,1.1,0.5,1.3c1.2,0.7,1.6,1.6,1.7,2.9
		c0.1,1.4-0.4,2.3-2,2.6c0.3,0.4,0.5,0.7,0.7,0.9c1.5,1.1,3,2.1,4.4,3.2c0.6,0.5,1.1,1.1,1.5,1.7c0.5,0.7,0.1,1.4-0.8,1.4
		c-1.7-0.1-2.4,1-3.1,2.3c-1.3,2.2-1.9,4.5-1.8,7c0,0.8-0.4,0.9-1.1,0.5c-1.8-1.1-1.9-1-3.5,0.4c-0.8,0.7-1.7,1.2-2.6,1.8
		c-0.8,0.5-0.9,1-0.7,1.8c0.2,1.1,0.4,2.1,0.6,3.2c0.2,0.9,0,2.2,1.7,1.9c0.1,0,0.6,0.6,0.6,0.9c0,0.9,0.3,1.5,1.1,2
		c0.7,0.4,0.8,0.9,0.3,1.7c-0.7,1-0.7,2.1,0.2,3c0.7,0.7,0.9,1.2,0,2.1c-0.5,0.5-0.4,1.7-0.6,2.5c-0.1,0.7-0.2,1.3-0.3,2
		c0,0.5-0.1,1.1,0,1.5c0.3,1.1,0.3,2-0.4,2.9c-0.5,0.6-0.9,0.6-1.4-0.1c-1.5-2.4-3.1-4.8-4.4-7.3c-1-1.8-1.6-3.7-2.3-5.6
		c-0.1-0.4,0.1-0.9,0.2-1.4c0.1-0.6,0.1-1.2,0.2-1.8c0.1-0.4,0.1-1,0.3-1.3c0.7-1,1-2,0.9-3.2c0-1.6,0.1-3.1,0.2-4.7
		c0-0.4,0.2-1,0.5-1.3c0.8-0.9,0.6-1.8,0.2-2.9c-0.3-0.9-0.4-1.9-0.7-2.8c-0.1-0.4-0.3-0.9-0.6-1c-0.3-0.1-0.9,0-1.1,0.3
		c-0.2,0.2-0.2,0.9,0,1.1c1.4,1.6,0,3.1-0.3,4.6c0,0.1-0.8,0.4-1,0.2c-0.4-0.3-0.6-0.8-0.9-1.2c-0.2-0.3-0.4-0.8-0.7-1
		c-1-0.5-3.4,1.1-3.5,2.2c-0.1,1.3-0.3,2.7-0.3,4c0,0.5,0.5,1.1,0.7,1.6c0.1,0.3,0.3,0.9,0.1,1c-0.9,0.6-1.8,1-2.7,1.5
		c-1.2-1.9-2.6-2-4.5-0.7c-1,0.7-2.4,0.8-3.6,1.2c-1.1,0.4-2.2,0.7-3.2,1.2c-0.3,0.1-0.5,0.6-0.6,0.9c-0.3,0.8-0.5,1.5-0.7,2.3
		c-0.5,2-0.8,3.9-1.4,5.9c-0.3,1-0.9,1.9-1.3,2.9c-0.6,1.1-0.4,1.4,0.8,1.7c0.8,0.2,1.5,0.7,2.1,1.3c0.7,0.6,1.3,0.8,1.8-0.2
		c0.5-1,1.3-0.9,2.2-0.5c0.8,0.5,1.5,1,2.4,1.6c0.2-0.3,0.3-0.6,0.5-0.8c0.6-0.7,1.2-0.7,1.7,0.1c0.3,0.5,0.7,1,0.7,1.5
		c0.1,2.1,1.8,3.4,2.6,5.1c0.2,0.5,0.6,1.1,0.9,1.5c0.5,0.6,0.7,1.1,0,1.8c-0.7,0.6-0.3,3.3,0.4,4c1.3,1.2,1.3,1.8-0.1,2.7
		c-0.8-2.2-1.7-4.3-2.2-6.5c-0.5-2.2-1.2-4.3-2.8-6.4c-0.9,1.6-0.8,3-0.2,4.1c1.3,2.4,1.2,4.9,0.5,7.3c-0.8,2.9-1.8,5.7-2.9,8.5
		c-0.5,1.3-1.6,1.7-2.8,1.2c-0.2-0.1-0.5-0.1-0.7-0.1c-0.7,0.2-2.4,2.8-2.2,3.5c0.3,1.3-0.2,2.3-1.1,3.2c-1.1,1.1-1,1.3,0.1,2.3
		c1.7,1.5,3.1,3.4,3.7,5.6c0.3,1-0.2,1.7-1.1,2c-0.6,0.3-1.3,0.5-1.9,0.6c-0.2,0-0.7-0.4-0.8-0.7c-0.3-1.3-0.4-2.7-0.7-4
		c-0.1-0.4-0.6-0.8-0.9-0.9c-1.3-0.1-1.6-0.9-1.7-2c-0.2-1.9-1.8-2.5-3.4-1.4c-0.1,0.1-0.2,0.3-0.4,0.3c-0.4,0.1-0.8,0.2-1.2,0.3
		c-0.1-0.4-0.2-0.9-0.1-1.3c0.1-0.6,0.7-1.3-0.2-1.8c-0.8-0.4-1.2,0.3-1.8,0.8c-1,1-1.3,2.7-2.8,3.3c-0.1,0-0.1,0.9,0,1.1
		c0.7,0.7,1.4,1.3,2.3,1.8c0.2,0.1,0.8-0.1,1.1-0.3c0.7-0.5,2.8-0.7,3.4-0.1c0.5,0.5,0.3,1-0.3,1.2c-1.4,0.3-2,1.4-2.7,2.3
		c-0.6,0.8-0.4,1.3,0.3,2c0.8,0.8,1.5,1.7,2.2,2.6c0.7,0.9,1.5,1.9,1.7,3c0.2,1.1,0.1,2.2,0.8,3.4c0.4,0.6-0.4,1.9-0.7,2.9
		c-0.5,1.3-1,2.6-1.5,3.8c-0.3,0.7-0.7,1.5-1.3,2c-1.4,1.4-2.7,2.8-4.9,3.2c-1.7,0.4-3.3,1.4-5,2.1c-0.4,0.2-1,0.2-1.3,0
		c-1.6-0.8-3-0.5-4.3,1c-1.2,1.5-1.3,2.5,0.1,3.9c0.7,0.7,1.4,1.5,2.2,2.1c2,1.6,2.6,3.8,2.6,6.2c0,0.8-0.6,1.7-1.3,2.4
		c-0.9,0.9-2.1,1.6-3.1,2.4c-0.3,0.2-0.6,0.3-0.8,0.1c-0.7-0.7-1.4-1.4-2.1-2.1c-1.3-1.1-2.6-2.2-3.9-3.2c-1.2-0.9-1.4-0.7-1.7,0.7
		c-0.2,1-0.6,1.9-0.8,2.9c-0.1,0.4,0.1,0.9,0.3,1.3c0.5,0.9,1,1.9,1.6,2.7c0.7,0.9,1.6,1.7,2.6,2.4c1,0.7,1.6,1.6,1.8,2.8
		c0.1,0.9,0.6,1.8,0.8,2.7c0.1,0.4,0,0.8,0.1,1.1c-0.4,0-0.8,0-1-0.1c-2-1.1-3.5-2.6-4-5c-0.3-1.8-1.3-3.2-2.6-4.4
		c-0.4-0.4-0.7-1.3-0.6-1.9c0.5-2.1,0.5-4.1-0.4-6.1c-0.5-1.1-0.8-2.2-1.1-3.4c-0.4-1.4-1.1-1.7-2.3-1c-0.3,0.2-0.7,0.4-1,0.5
		c-1,0.4-1.6,0-1.5-1c0.3-2.5-1.4-3.9-2.9-5.4c-0.5-0.6-1-1.3-1.3-2c-0.5-1.4-1-1.5-2.3-0.8c-0.8,0.4-1.7,0.7-2.6,0.7
		c-1.2,0.1-2,0.3-2.2,1.6c-0.1,0.4-0.3,0.8-0.6,1.1c-2.4,2.3-5,4.4-7.3,6.8c-0.5,0.5-0.3,1.7-0.4,2.5c-0.1,0.9-0.1,1.8-0.2,2.7
		c0,0.2-0.1,0.3-0.1,0.5c0.5,2.3-1.5,3.2-2.5,4.7c-0.5,0.7-1.3,0.3-1.8-0.6c-1.3-2.8-2.5-5.7-3.9-8.5c-1.4-2.8-2.4-5.7-2.6-8.8
		c-0.1-1-0.6-1.3-1.5-0.8c-1.4,0.8-3.1,0.3-3.5-1.3c-0.3-1.3-1.3-1.8-2.1-2.5c-0.5-0.4-1-0.9-1.4-1.4c-0.6-0.8-1.3-1.3-2.3-1.1
		c-3.6,0.7-7.2,0.3-10.7-0.5c-0.5-0.1-0.9-0.7-1.2-1.1c-0.4-0.8-1.1-1.2-1.7-0.7c-1.6,1.1-2.8,0.2-4.1-0.5c-1.5-0.8-2.9-1.7-3.7-3.3
		c-0.3-0.5-1.1-0.9-1.7-1c-1.3-0.1-1.9,0.9-1.2,2c1.3,1.8,2.7,3.4,4,5.1c0.2,0.2,0.4,0.4,0.5,0.6c0.4,1.1,0.9,1.8,2.4,1.7
		c1.2-0.1,2.1-0.5,2.7-1.5c0.2-0.3,0.4-0.5,0.6-0.8c0.6-0.6,1-0.6,1.2,0.3c0.4,1.4,1.1,2.2,2.7,2.4c0.8,0.1,1.6,1.2,2.1,2
		c0.2,0.4-0.3,1.3-0.6,1.8c-0.5,0.9-0.9,1.8-1.5,2.5c-0.7,0.9-1.5,1.7-2.4,2.3c-1.2,0.8-2.6,1.4-3.9,2c-0.2,0.1-0.4,0.2-0.5,0.3
		c-2,2.3-5,2.6-7.5,3.9c-1,0.5-2.2,0.7-3.3,1c-1,0.3-1.7,0.1-2-1.1c-0.3-1.4-0.6-2.7-1-4.1c0-0.1,0-0.3-0.1-0.4
		c-1.2-1.7-2.3-3.4-3.7-4.9c-0.8-0.9-1.5-1.6-1.7-2.8c-0.3-1.3-0.7-2.4-1.8-3.3c-1.1-1-1.7-2.6-2.6-3.9c-0.3-0.5-0.6-1.1-1.1-1.4
		c-0.4-0.3-1-0.4-1.5-0.3c-0.3,0.1-0.6,0.9-0.5,1.2c0.4,1,0.9,2,1.4,3c0.3,0.5,0.7,1,0.9,1.6c0.4,1.2,1,2.1,1.9,3
		c0.5,0.5,0.7,1.5,0.8,2.3c0.1,1.3,0.4,2.4,1.6,3.2c0.8,0.6,1.3,1.4,1.6,2.5c0.2,0.8,1,1.6,1.6,2.3c1.3,1.2,2.7,2.3,3.9,3.6
		c0.6,0.8,0.3,2.2,1.5,2.8c0.5,0.2,1.1,0.4,1.6,0.3c1.7-0.3,3.3-0.7,4.9-1.1c0.7-0.2,1.4-0.4,2.1-0.6c0.9-0.3,1.4,0,1.3,0.9
		c-0.1,1.1-0.3,2.2-0.8,3.1c-0.9,1.9-1.8,3.8-3.1,5.5c-1,1.4-2.4,2.6-3.7,3.8c-1.7,1.6-3.5,3.2-5.2,4.8c-1.5,1.4-2.8,3-3.7,4.9
		c-0.3,0.5-0.5,1.1-0.5,1.6c0.2,1.5,0.5,3,0.8,4.4c0.1,0.6,0.6,1.1,0.8,1.7c0.2,0.4,0.4,0.8,0.4,1.2c0,1.3-0.2,2.6,0,3.9
		c0.2,2.5-1.5,3.9-3.3,4.9c-1.7,1-3.3,2.3-4.8,3.5c-0.3,0.3-0.2,1.2-0.2,1.8c0.1,1.3,0.3,2.6,0.3,3.9c0,1-0.6,1.6-1.6,1.9
		c-1.8,0.5-2,0.8-2.2,2.7c-0.1,0.8-0.2,1.7-0.7,2.3c-2.1,2.5-4.1,5-6.4,7.2c-1.2,1.1-3,1.7-4.6,1.8c-2,0.1-3.9,0.4-5.7,0.9
		c-1.6,0.4-3.2-1.1-3.1-2.7c0.2-2.5-0.9-4.6-2.1-6.7c-0.6-1.2-1.4-2.4-1.6-3.6c-0.6-3.5-1.2-7-3.1-10c-2.2-3.7-0.9-6.6,1.2-9.5
		c0.8-1.1,1-2,0.3-3.1c-0.2-0.3-0.4-0.8-0.4-1.2c0.3-2.5-1.1-4.6-2-6.7c-0.2-0.4-0.6-0.8-1-1.2c-0.7-0.8-1.4-1.4-2.1-2.2
		c-0.8-1-1-2-0.3-3.3c0.6-1.1,0.7-2.5,0.8-3.8c0.1-1.6-1.5-2.8-3.1-2.5c-0.5,0.1-1.1,0.4-1.5,0.3c-0.7-0.3-1.5-0.7-1.8-1.3
		c-0.8-1.3-1.8-2.1-3.3-1.6c-1.9,0.5-3.8,1.2-5.7,1.8c-0.4,0.1-0.9,0.3-1.2,0.2c-2.1-0.8-4-0.5-6,0.4c-1,0.4-1.9,0.3-2.9-0.4
		c-1.3-1-2.8-1.8-4-2.9c-0.8-0.7-1.3-1.8-2-2.7c-0.2-0.3-0.2-0.7-0.4-0.9c-1.2-1.2-2.5-2.4-3.7-3.7c-0.4-0.4-0.6-1-0.8-1.5
		c-0.2-0.6-0.4-1.3-0.6-1.9c-0.1-0.3-0.2-0.6-0.1-0.8c0.4-1.1,1.2-2.1,1.3-3.3c0.1-1.6-0.2-3.2-0.3-4.8c-0.1-0.8-0.4-1.7-0.2-2.2
		c1.4-2.9,3.1-5.6,5.4-8c0.4-0.4,1-0.7,1.5-0.9c1.7-0.7,2.7-2.3,2.9-4.1c0.1-1.7,0.9-3.1,2.4-3.9c1.3-0.7,2.3-1.7,2.7-3.2
		c0.3-1.4-0.7-2.9-2.1-2.8c-1.3,0.1-1.7-0.4-1.9-1.7c-0.2-1.3-0.1-2.5,0.2-3.7c0.2-0.9,0.2-1.9,0.1-2.9c-0.3-1.8,0.2-2.7,2.1-2.7
		c2,0,4,0.2,6,0.4c1.1,0.1,1.4-0.4,1.7-1.3c0.7-2.2-0.1-3.9-1.6-5.5c-0.3-0.3-0.9-0.4-1.3-0.7c-0.4-0.3-0.6-0.6-0.9-1
		c0.4-0.3,0.8-0.7,1.3-0.8c0.5-0.1,1.5,0.3,1.7,0c1.1-1.4,2.9-1.1,4.1-2.2c0.1-0.1,0.2-0.1,0.2-0.1c1.1-1.4,2.3-2.8,3.2-4.3
		c0.5-0.8,1-1.5,2.1-1.6c0.9-0.1,1.8-0.4,2.6-0.8c0.3-0.1,0.6-0.7,0.6-1.1c0-0.6-0.2-1.3-0.4-1.9c-0.6-1.7,0.1-3.5,1.9-4.5
		c0.6,1.1,0.6,2.2,0.2,3.3c-0.3,0.8-0.9,1.6-0.1,2.4c0.7,0.8,1.6,1,2.7,0.7c0.5-0.1,1.2,0,1.7,0.3c0.8,0.5,1.4,0.4,2.1-0.1
		c0.5-0.4,1.1-0.8,1.7-1c0.7-0.2,1.5-0.1,2.3-0.1c0.6,0,1.3,0.2,1.7-0.1c0.7-0.5,1.6-1,1.4-2.3c-0.1-0.9,0-1.9,0.3-2.8
		c0.3-0.8,0.9-1,1.7-0.4c0.3,0.3,0.9,0.3,1.4,0.4c0-0.6,0.2-1.1,0.1-1.7c-0.1-0.4-0.5-0.7-0.7-1c-0.7-0.9-0.5-1.8,0.6-2.1
		c0.8-0.2,1.6-0.4,2.4-0.2c1,0.2,1.9,0.1,2.5-0.7c0.3-0.3,0.4-0.6,0.7-0.9c-0.4-0.3-0.9-0.8-1.2-0.7c-1.5,0.2-3,0.4-4.5,0.9
		c-1.3,0.4-3.8-0.7-4-2.1c0-0.2,0-0.4,0-0.5c-1.2-2.7,0.1-4.7,1.8-6.6c0.5-0.5,0.8-1.1,1.1-1.7c0.7-1,0.5-1.6-0.7-2
		c-2-0.6-3,0.3-3.2,2.3c-0.1,1.1-0.8,2.3-1.6,3.1c-1.4,1.3-2.7,2.6-2.4,4.7c0.1,0.7,0.4,1.5,0.9,2c1.2,1.3,1.3,1.8,0.2,3.2
		c-1.1,1.4-1.8,2.8-1.2,4.6c0.1,0.3,0,1-0.2,1c-1.4,0.5-2.4,1.8-4,1.8c-0.6,0-1.2,0.4-2.2,0.5c0.2-0.3,0.4-0.7,0.7-0.9
		c1.1-0.6,1.2-1.1,0.6-2.2c-0.6-1.1-1.1-2.4-1.4-3.6c-0.4-1.4-0.9-1.7-2.1-0.8c-0.3,0.2-0.5,0.4-0.8,0.7c-1.1,1.2-2.1,1.5-3.2,0.8
		c-1.2-0.6-0.9-1.9-0.9-2.8c0.1-0.9,0.1-1.7-0.5-2.5c-0.9-1.3-0.2-2.9,1.1-3.7c1.7-1.1,3.2-2.5,4.6-4.1c1.5-1.9,2.3-3.9,3.1-6.1
		c0.5-1.6,1.8-2.9,2.8-4.4c-0.5-0.3-0.8-0.5-1.2-0.7c0-0.1,0-0.2,0-0.3c0.6-0.1,1.4-0.1,1.8-0.5c0.5-0.4,0.6-1.3,1.1-1.6
		c1.3-0.9,2.8-1.5,4.2-2.3c0.6-0.4,1.2-0.8,1.8-1.2c0.7-0.5,1.3-1.3,2.1-0.1c0.1,0.1,0.6,0,0.9-0.1c0.4-0.2,0.6-0.5,1-0.8
		c0.3,0.3,0.6,0.6,0.8,0.9c0-0.1,0-0.2,0.1-0.2c0.8,0.2,1.7,0.1,2.3,0.5c1.4,0.8-0.2,1.2-0.4,1.8c0,0.1,0.1,0.3,0.1,0.3
		c1.9,0.4,3.8,0.7,5.7,1.2c1,0.2,2,0.5,2.8,0.9c1.3,0.6,2.4,1.4,3.6,2.1c1.5,0.9,2,1.9,1.6,3c-0.5,1.4-1.9,2.4-3.5,2
		c-1.3-0.3-2.6-0.7-3.9-1.1c-0.3-0.1-0.7-0.1-1.4-0.3c0.5,0.6,0.6,1.1,1,1.3c1.2,0.5,1.5,1.6,1.6,2.7c0.2,1.6,1.5,2.2,2.7,2.8
		c0.3,0.1,0.7-0.2,1.1-0.3c-0.2-0.3-0.4-0.7-0.6-1c-0.1-0.1-0.5-0.1-0.6-0.3c-0.2-0.3-0.3-0.7-0.4-1.1c0.4-0.1,0.8-0.3,1.1-0.2
		c0.6,0.2,1.1,0.6,1.6,0.7c0.3,0.1,0.8,0.1,1-0.1c0.2-0.2,0.3-0.7,0.2-1c-0.5-1.9,0.9-3.5,2.9-3.3c1.1,0.1,1.4-0.4,1.1-1.5
		c-0.4-1.1-0.7-2.1-0.9-3.2c-0.1-0.3,0.3-1.1,0.4-1.1c0.6,0.1,1.2,0.2,1.7,0.6c0.2,0.2,0.4,0.9,0.2,1.2c-0.3,0.5-0.9,1-0.3,1.5
		c0.4,0.4,1.1,0.7,1.5,0.6c0.4-0.1,0.7-0.7,1.1-1.1c1-1.1,2-2.2,3.1-3.1C290.6,84.1,291.6,83.8,292.6,83.3z M255.6,146.8
		c-0.2,0-0.3-0.1-0.5-0.1c-0.2-2.4-2.1-3.6-3.9-4.5c-1.8-0.9-3.1-2.3-4.1-3.8c-1.1-1.6-1.8-1.8-3.5-0.8c-0.9,0.6-1.7,1.8-3.2,1.1
		c-1.8-0.9-2.4-0.5-2.8,1.5c-0.2,1-0.6,1.6-1.5,2.1c-1.3,0.8-2.8,1.8-2.3,3.8c0,0.2,0,0.3,0,0.5c-0.5,1.7-2.4,3-4.2,3
		c-0.7,0-1.5,0.2-2.2,0.5c-0.3,0.1-0.5,0.6-0.5,0.9c0,0.3,0.4,0.8,0.6,0.8c1.7,0,3.5,0.8,5.2-0.3c2.3-1.5,4.8-1.9,7.5-1.9
		c1.8,0,3.7-0.4,5.5-0.6c0.5,0,1.1,0,1.4,0.2c0.9,0.7,1.2,2.8,0.5,3.8c-0.4,0.7-0.4,1.2,0.4,1.6c1.3,0.6,2.5,1.4,4.1,1.2
		c0.9-0.1,1.6,0.3,2.1,1.1c0.4,0.5,1,0.8,1.6,1.1c0.8,0.4,1.7,0.8,2.5,1.1c0.6,0.2,1.4,0.5,1.8,0.3c0.4-0.3,0.6-1.1,0.6-1.7
		c0-0.9,0.2-1.6,1-1.8c0.9-0.2,1.9-0.2,2.8,0.1c1.4,0.4,2.7,1.1,4.1,1.5c1.5,0.4,3.1,1.1,4.5,0.7c2-0.5,3.9-0.2,5.8-0.3
		c0.4,0,1.1-0.3,1.2-0.6c0.7-2,1.6-3.9,1.9-6c0.3-2.2-0.7-2.7-2.7-1.5c-0.9,0.5-1.7,0.5-2.6,0.1c-0.6-0.3-1.4-0.4-2-0.2
		c-1.4,0.5-3.8,0.1-4.5-1.2c-0.8-1.4-1.2-3-1.8-4.5c-0.2-0.5-0.4-1.3-0.8-1.4c-0.6-0.2-1.4,0-2,0.2c-0.6,0.2-1.2,0.7-2,1.3
		c0.4,0.7,0.9,1.5,1.4,2.1c0.6,0.6,0.8,1.1,0,1.6c-0.2,0.1-0.3,0.4-0.5,0.5c-0.3,0.3-0.8,1-1,0.9c-0.4-0.2-0.8-0.7-1.1-1.1
		c-0.6-1-1.2-2-1.8-3c-0.5-0.8-1.3-1.7-1.3-2.5c0-2-1.1-3.1-2.6-3.7c-2.3-0.9-3.6-2.8-5.5-4.1c-0.6-0.4-1-0.4-1.4,0
		c-0.6,0.6-0.5,1.2,0,1.8c0.9,1.1,1.9,2.2,2.9,3.2c0.3,0.4,0.8,0.5,1.3,0.8c1.1,0.7,2.4,1.1,3.1,2.4c-0.9,0.4-1.2,0.9-0.9,1.9
		C256.1,145.7,255.7,146.3,255.6,146.8z M283.3,131.4c-0.4-0.1-0.6-0.3-0.8-0.2c-1.3,0.6-2.5,1.1-3.7,1.8c-0.2,0.1,0,0.8,0,1.3
		c0,0.4,0.1,1.1-0.1,1.3c-0.4,0.3-1.1,0.4-1.4,0.2c-0.5-0.3-1-1-1-1.5c0-1.5-1.3-1-2-1.5c-0.2-0.2-1.2,0.3-1.4,0.6
		c-0.9,1.5-1.7,3.2-2.6,4.7c-0.6,1-0.6,1.9-0.1,2.9c0.2,0.4,0.1,0.9,0.2,1.4c0,0.3,0,0.7-0.1,1c0.4-0.1,0.8-0.2,1.1-0.4
		c0.8-0.3,1.6-0.6,2.4-0.9c0.3-0.1,0.7-0.1,1-0.3c1.8-1.4,3.9-1.5,5.9-0.6c1.8,0.9,3.7,1,5.6,0.9c0.6-0.1,1.6-0.5,1.7-0.9
		c0.1-0.7-0.1-1.8-0.6-2.2c-1.4-1.1-3-2-4.5-3c-0.7-0.4-1.1-0.9-0.7-1.7C282.5,133.3,282.9,132.4,283.3,131.4z"/>
	<path d="M133.9,77.3c0,0,0.2-0.2,0.4-0.3c0.5-0.2,0.9-0.3,1.4-0.4c0,0.6,0.1,1.2,0,1.8c-0.1,0.7-0.6,1.4-0.7,2.1
		c0,0.3,0.4,0.8,0.6,1.1c0.4-0.2,0.8-0.4,1.1-0.7c0.9-1,1.8-2,2.7-3c0.2-0.2,0.4-0.5,0.5-0.8c0.3-0.9,0.6-1.7,1-2.8
		c-0.4-0.3-1-0.7-1.7-1c-0.8-0.3-1.8-0.6-1.7-1.6c0-0.5,0.9-0.9,1.5-1.3c0,0.1,0,0,0-0.1c-1.6-1.2-1.7-1.9-0.5-3.4
		c1.3-1.5,2.5-3.1,4-4.3c0.6-0.5,1.8-0.6,2.7-0.6c0.7,0,0.8,0.5,0.3,1c-0.3,0.3-0.6,0.6-1,0.8c-1.7,1-1.9,2.9-2.5,4.5
		c-0.1,0.4,0.2,0.9,0.5,1.4c0.5-1.2,0.9-2.4,1.5-3.5c0.3-0.5,0.6-1.2,1.1-1.5c1.6-0.7,3.1-2.3,5.1-0.9c0.3,0.2,0.9,0.1,1.4,0.2
		c1.9,0.2,2.7,1.3,2.2,3.1c-0.1,0.4,0,0.9,0.1,1.3c0.2,1,0.4,2,0.8,3c0.1,0.3,0.7,0.8,1,0.8c1.1-0.2,1.4,0.4,1.8,1.2
		c0.3,0.7,1.1,1.1,1.4,1.8c0.5,0.8,0.8,1.8,1,2.7c0.2,0.9,0.3,1.8-0.9,2.5c-0.9,0.5-0.9,1.3-0.1,2.1c1,1,1.9,2.2,2.9,3.3
		c0.4,0.4,0.9,0.7,1.4,1c0.8,0.5,0.8,1,0.2,1.7c-0.9,1-1.9,1.9-2.8,2.8c-0.4,0.4-1.3-0.2-1.6-1.2c-0.2-0.5-0.2-1.1-0.6-1.5
		c-0.3-0.4-0.9-0.5-1.4-0.7c-0.3,0.6-0.7,1.3-0.7,1.9c0,0.5,0.4,1,0.6,1.5c0.5,1,1,2,1.4,3.1c0.4,1.1-0.4,1.7-1,2.5
		c-1.1-0.7-2.1-1.4-3.2-2.1c-0.1,0.1-0.2,0.2-0.3,0.3c0.5,0.8,1,1.5,1.4,2.3c0.2,0.3,0.1,0.8,0.2,1.2c-0.4-0.1-0.8,0-1-0.2
		c-1.3-0.8-2.6-1.7-3.9-2.6c-0.3-0.2-0.4-0.7-0.5-1.1c-0.8-2.8-2.1-3.9-4.8-3.1c-0.5,0.1-1.1-0.3-1.6-0.6c-0.1-0.1-0.1-0.8,0-0.9
		c0.6-0.4,1.3-0.9,2-1c0.8-0.2,1.7,0.1,2.6,0c0.3,0,0.8-0.4,0.8-0.5c-0.2-1.8,1.5-2.3,2.4-3.2c1.6-1.5,1.8-3.2,0.1-4.5
		c-1.7-1.3-2.2-3.1-2.4-5c0-0.3-0.2-0.6-0.5-0.8c-0.1-0.1-0.5,0.2-0.7,0.4c-0.6,0.8-1.3,0.8-2.1,0.5c-1.2-0.4-2.4-0.6-3.6-0.8
		c-0.1,0.1-0.1,0.3-0.2,0.4c0.5,0.5,0.9,1,1.3,1.6c0.7,0.9,0.5,1.9-0.5,2.5c-0.7,0.4-1,0.9-1,1.7c0.2,1.9-0.9,3.3-2.8,3.7
		c-0.9,0.2-1.9,0.5-2.7-0.4c-0.1-0.1-0.6-0.2-0.8,0c-0.2,0.1-0.3,0.6-0.2,0.8c0.4,0.9,0.8,1.9,1.3,2.7c0.8,1.3,1.7,2.5,2.5,3.8
		c0.2,0.2,0,0.7,0,1c-0.4,0-0.7,0-1.1-0.1c-0.1,0-0.2-0.2-0.3-0.2c-1.4-1.4-1.4-1.4-2.9-0.1c-0.6,0.6-1.1,0.6-1.7,0
		c-0.6-0.6-0.7-1-0.2-1.8c0.7-1,1-2.2,1.5-3.4c-0.2-0.1-0.3-0.2-0.5-0.3c-0.4,0.4-0.9,0.7-1.3,1.1c-0.6,0.7-1.2,1.4-1.8,2.1
		c-0.2,0.2-0.7,0.4-1,0.3c-1.4-0.1-2.5,0.5-3.2,1.8c-0.1,0.2-0.3,0.5-0.5,0.5c-3.5,1.5-5.7,4.2-7.3,7.4c-0.5,0.9-0.8,2,0.5,2.9
		c0.4,0.3,0.5,1.4,0.4,2.1c-0.1,1.5,0,1.4,1.4,1.8c1.2,0.3,2.4,0.9,3.2,1.7c1.5,1.6,2.9,3.2,5.2,3.4c1,0.1,1.4,0.7,1.1,1.7
		c-0.3,0.9-0.5,1.8-0.7,2.7c-0.1,0.3-0.1,0.8,0.1,1.1c0.2,0.6,0.6,1.2,0.9,1.8c0.4,0.5,0.5,1.7,1.4,1.3c0.7-0.3,1.3-1.3,1.5-2
		c0.3-1.2,0.3-2.5,0.4-3.8c0.1-1,0.5-1.6,1.5-1.9c3.2-1.3,4.6-3.5,2.8-6.9c-0.5-0.9-0.4-1.6,0.4-2.2c1.1-0.9,1.5-1.9,1.4-3.3
		c0-1.2,0.3-2.4,0.6-3.6c0.2-0.9,1.2-1.1,2.2-0.8c0.8,0.3,1.7,0.5,2.5,0.6c1,0.1,1.5,0.8,1.9,1.7c0.3,0.6,0.8,1.3,1.4,1.6
		c0.9,0.5,1.2,1,0.8,2.1c-0.5,1.5-0.8,3,0.6,4.4c0.6,0.7,1.3,0.8,1.9,0.3c0.8-0.7,1.5-1.6,2.3-2.3c0.4-0.4,0.8-0.7,1.2-1
		c0.2,0.5,0.5,0.9,0.6,1.4c0.4,1.4,0.8,2.8,1,4.2c0.1,0.8,0,1.6,0,2.4c0,0.3-0.1,0.8,0,1c0.8,0.9,1.7,1.7,2.5,2.6
		c0.4,0.4,0.8,0.7,1.1,1.1c0.4,0.5,0.7,1.3,1.2,1.6c1.4,0.8,1.2,1.9,0.9,3.1c-0.3,1.2-0.8,2.4-1.2,3.6c-0.3,0.8,0.7,2,1.6,2
		c1.1-0.1,1.3,0.4,1.2,1.4c-0.1,0.8-0.3,1.6,0.5,2.2c0.2,0.1-0.1,0.8-0.1,1.2c-0.4-0.2-0.8-0.3-1.1-0.5c-0.2-0.1-0.4-0.5-0.6-0.6
		c-1.3-0.2-2.6-0.4-3.9-0.6c-0.6-0.1-1.2-0.4-1.8-0.6c0.3-0.6,0.5-1.2,0.9-1.7c0.9-1.4,1.9-2.8,2.8-4.3c-0.1-0.2-0.2-0.3-0.3-0.5
		c-0.7,0.2-1.6,0.2-2,0.7c-1.3,1.4-2.9,1.3-4.6,1.3c-1.6-0.1-3.2-0.2-4.8-0.3c-0.2,0-0.5,0-0.6,0.1c-1.2,0.9-2.3,1.8-3.4,3
		c0.5-0.1,1.1-0.2,1.6-0.3c0.5-0.1,1.1-0.5,1.6-0.5c0.6,0,1.2,0.3,1.6,0.7c0.2,0.2-0.3,0.9-0.4,1.4c-0.1,0.7-0.3,1.5-0.2,2.2
		c0.1,0.4,0.8,0.7,1.2,1.1c0.3,0.2,0.8,0.2,1,0.4c0.8,1,1.4,0.7,2.1,0c0.3-0.3,0.7-0.5,1.1-0.7c0.1,0.3,0.4,0.6,0.4,0.7
		c-0.2,0.4-0.6,0.8-1,1c-1.5,0.6-3,1.2-4.4,1.8c-0.4,0.2-0.7,0.7-1.1,0.9c-0.4,0.2-0.9,0.2-1.4,0.3c0-0.5-0.2-1-0.1-1.5
		c0-0.3,0.4-0.6,0.6-1.1c-0.4,0-0.7-0.1-0.8,0c-1.7,0.8-3.5,1.5-5.2,2.3c-1.2,0.6-1.9,1.6-1.7,3.1c0,0.3-0.4,0.8-0.7,0.9
		c-0.8,0.4-1.6,0.6-2.4,0.8c-1.1,0.3-1.9,0.7-2.1,1.9c-0.1,0.3-0.4,0.6-0.7,0.9c-0.4,0.6-0.8,1.2-1.2,1.8c-0.2,0.3-0.5,0.7-0.7,0.7
		c-1,0.1-1.2,0.8-1,1.6c0.4,1.8-0.4,3.1-1.8,4.1c-1.7,1.2-3.4,2.3-5.1,3.5c-1.8,1.3-1.6,3.2-1.3,5c0.1,1,0.5,2,0.7,3
		c0.1,0.5,0.3,1.1,0.2,1.5c-0.2,0.6-0.7,1.2-1.1,1.7c-0.4-0.4-0.9-0.7-1.2-1.1c-0.6-1.1-1.2-2.2-1-3.6c0.2-1.5-1.1-2.5-2.7-2.6
		c-1.1,0-2.3-0.5-3.4-0.7c-1.4-0.3-2.7-0.2-3.5,1.3c-0.2,0.3-1,0.5-1.5,0.5c-1-0.1-2-0.5-3-0.8c-0.2-0.1-0.5-0.1-0.6,0
		c-1.4,0.6-2.8,1.1-4.1,1.9c-1.4,0.8-1.8,2.3-1.7,3.9c0,0.4-0.1,0.9-0.3,1.2c-0.9,1.7-0.8,3.6-0.7,5.5c0.1,2.1,1.3,3.7,2.9,4.9
		c2.2,1.6,6,0.2,6.9-2.5c0.3-0.9,0.8-1.3,1.7-1.4c0.7-0.1,1.3-0.5,1.9-0.6c0.4-0.1,1,0.1,1.3,0.4c0.2,0.2-0.1,0.8-0.3,1.2
		c-0.1,0.2-0.3,0.3-0.4,0.5c-0.7,1.9-1.4,3.8-2,5.7c-0.3,0.8,0.4,0.9,1,0.9c1.2,0,2.5-0.1,3.7,0c1.9,0.1,2.6,1.1,2.2,2.9
		c-0.2,0.9-0.5,1.8-0.6,2.7c-0.3,1.7,0.9,2.7,2,3.7c0.8,0.7,1.6,0.7,2.6,0.2c1.3-0.7,2.7-0.9,3.8,0.4c0.5,0.6,1.1,0.6,1.6,0
		c0.4-0.4,0.9-0.8,1-1.3c0.4-1.4,1.5-1.8,2.7-2.2c0.8-0.2,1.6-0.8,2.4-1.2c0.3-0.1,0.6-0.1,0.9-0.2c0.1,0.7,0.1,1.3,0.2,1.9
		c0.7-0.3,1.4-0.7,2.1-1c0-0.2,0-0.3,0-0.5c0.9,0.6,1.7,1.2,2.6,1.8c0.1,0.1,0.3,0.3,0.4,0.3c1.7-0.4,3.4,1,5.1-0.1
		c0.8-0.5,1.5-0.3,2.3,0.4c1,0.9,2.3,1.7,3.4,2.5c0.5,0.4,1,0.7,1.3,1.2c1.3,1.6,2.8,2.5,5,2.4c2.5-0.1,5.2,1.8,6.4,4.2
		c1,2,1.2,3.3-0.6,4.7c-0.1,0.1-0.1,0.4-0.2,0.8c0.5-0.2,0.9-0.2,1.3-0.4c1-0.5,2-0.8,2.9,0.2c0.1,0.1,0.4,0.3,0.6,0.2
		c1.7-0.4,3.2,0.4,4.2,1.3c1.2,1.1,2.5,0.8,3.7,1.1c0.8,0.2,1.7,0.2,2.5,0.4c1.1,0.4,2.1,0.9,3.2,1.4c1.1,0.6,2.1,1.2,3.1,1.8
		c0.5,0.3,1,0.8,1.2,1.3c0.9,2.3,0.3,4.2-1.5,5.9c-1.2,1.2-2.3,2.6-3.2,4c-0.3,0.5-0.3,1.2-0.3,1.8c0,1.9,0.2,3.8-0.7,5.6
		c-0.7,1.3-0.9,2.8-1.3,4.2c-0.5,1.7-1.5,2.5-3.4,2.5c-0.5,0-1.2,0-1.6,0.3c-1.6,1.1-3.3,2.2-4.8,3.5c-1,0.8-1.4,1.8-0.7,3.1
		c0.2,0.4,0.1,1,0,1.4c-0.5,1-1,2-1.6,3c-0.1,0.1-0.2,0.3-0.3,0.4c-1.6,0.3-1.7,1.9-2.3,2.9c-0.6,1-1,2.2-1.6,3.2
		c-0.8,1.3-1.8,1.6-3.3,1.3c-0.6-0.1-1.2-0.1-2.1-0.2c0.6,1.3,1.1,2.3,1.6,3.2c0.4,0.7-0.6,2.7-1.8,3.2c-1.1,0.4-2.4,0.6-3.6,0.6
		c-1,0-1.4,0.2-1.3,1.2c0,0.2,0,0.5-0.1,0.8c-0.2,2-0.2,2-2.3,1.9c-0.3,0-0.7,0.3-1,0.5c0.3,0.5,0.6,1.1,1,1.6
		c0.2,0.3,0.7,0.4,1,0.6c-0.3,0.3-0.7,0.5-0.8,0.9c-0.3,0.7-0.8,1.5-0.8,2.3c0,1-0.3,1.6-1.2,2.1c-1.4,0.7-1.4,1.9-0.2,2.9
		c0.1,0.1,0.1,0.1,0.2,0.1c2,0.9,2.1,1.8,0.6,3.5c-0.3,0.3-0.4,0.8-0.5,1.3c-0.1,0.3-0.1,0.7-0.3,1c-0.3,0.6-1.1,1.3-1,1.8
		c0.2,1.2,0.7,2.4,1.2,3.6c0.7,1.9,2.2,3.2,4.1,3.9c0.2,0.1,0.3,0.3,0.4,0.4c-1,1.1-3.4,1.6-4.5,1.1c-0.3-0.1-0.7-0.1-1-0.2
		c-0.3-0.1-0.8-0.3-0.9-0.5c-0.1-0.3,0.2-0.7,0.3-1.1c0.1-0.3,0.3-0.6,0.4-0.9c-0.3,0.1-0.7,0.1-1,0.2c-2.1,1.1-3,0.7-3.5-1.6
		c0-0.2-0.1-0.3-0.2-0.5c-1-2.1-1.7-4.4-3.6-6.1c-0.6-0.5-0.5-1.1,0-1.7c0.7-0.7,0.6-1.3,0.2-2.1c-0.5-0.7-0.3-1.9-1.5-2.2
		c-0.1,0-0.2-0.6-0.1-0.8c0.1-0.2,0.5-0.5,0.8-0.5c1,0,1.1-0.5,1.1-1.3c0-1.7,0.1-3.5,0.1-5.2c0-0.3-0.4-0.6-0.6-1
		c-0.2,0.3-0.5,0.6-0.6,1c-0.1,0.4-0.1,0.8-0.2,1.3c-0.1,0-0.3,0-0.4,0c-0.1-0.3-0.3-0.6-0.3-1c0-1.7,0.1-3.5,0.1-5.2
		c0-0.3,0.1-0.7,0-1c-1.3-2.7,0.1-5.2,0.6-7.8c0.2-1.2,0.3-2.4,0.2-3.5c-0.1-1.8-0.4-3.5-0.4-5.3c0-1.7,0.4-3.4,0.4-5
		c0.1-3.1,0-6.2-0.1-9.3c0-1-0.3-1.9-1.2-2.5c-1.8-1.2-3.5-2.5-5.3-3.7c-1.2-0.8-2.4-1.6-2.6-3.2c-0.1-0.5-0.5-0.9-0.7-1.3
		c-1.4-2.4-2.8-4.8-4.2-7.2c-0.2-0.3-0.5-0.6-0.7-0.9c-1.8-1.5-1.9-2.9-0.4-4.6c0.2-0.2,0.2-1,0-1.2c-0.9-0.9-0.9-1.7-0.2-2.7
		c0.3-0.4,0.4-0.9,0.6-1.4c0.1-0.3,0.2-0.7,0.4-0.9c0.9-1,2-1.9,2.9-2.9c0.4-0.4,0.8-0.9,0.8-1.4c0.1-2.3-0.3-4.6-1.5-6.7
		c-0.5-0.9-1.4-0.9-2,0c-1.1,1.4-1.1,1.4-2.6,0.6c-0.3-0.2-0.7-0.3-1.1-0.3c-0.9,0-1.6-0.3-1.9-1.2c0-0.1-0.1-0.3-0.2-0.3
		c-2.3-0.7-2.5-3.4-4.2-4.5c-1.1-0.8-2.4-1.5-3.7-1.6c-2-0.2-3.3-1.4-4.6-2.6c-1-0.9-1.8-1.3-3.2-0.8c-0.9,0.3-2.1,0.2-3-0.2
		c-2.3-0.9-4.6-2-6.9-3.2c-1-0.5-1.9-1.1-2.7-1.8c-0.4-0.4-0.7-1.2-0.5-1.8c0.3-1.6,0.1-3-0.9-4.3c-1-1.2-2-2.4-2.9-3.6
		c-0.1-0.1-0.3-0.2-0.3-0.4c-0.2-1.9-1.9-2.9-2.7-4.5c-0.5-1.1-1-2.2-1.4-3.3c-0.3-0.9-0.6-1.8-1.6-2.1c-0.2-0.1-0.7,0.2-0.7,0.3
		c0,0.9-0.1,1.8,0.2,2.6c0.9,1.9,2,3.7,2.9,5.6c0.2,0.4,0.4,0.8,0.5,1.3c0.2,1.2,0.3,2.4,1.4,3.1c0.2,0.1,0.2,0.6,0.5,1.1
		c-0.6-0.2-0.9-0.2-1-0.4c-0.7-0.7-1.4-1.4-2-2.1c-0.2-0.2-0.4-0.5-0.3-0.8c0.3-1.6-0.7-2.4-1.8-3c-0.7-0.5-1-0.9-0.6-1.8
		c0.2-0.6,0.1-1.6-0.3-2c-1.6-1.7-2-3.9-2.4-6c-0.4-1.9-1.6-2.7-3-3.4c-0.8-0.4-1.1-0.8-1.4-1.6c-0.6-1.6-1.1-3.2-0.9-4.9
		c0-0.1,0-0.2-0.1-0.2c-1.8-2.3-0.9-4.9-0.8-7.4c0.1-3,1.8-5.4,2.5-8.2c0.3-1.2,0.5-2.4,0.7-3.6c0.1-0.8,0.3-1.6,0.4-2.3
		c0-0.4,0-0.9-0.3-1.3c-0.7-1-1.5-1.8-2.2-2.8c-0.3-0.4-0.3-1.1-0.4-1.6c0.5,0.1,1,0.1,1.5,0.2c0.1,0,0.2,0.1,0.7,0.2
		c-0.3-0.5-0.5-0.7-0.6-1c-0.2-0.3-0.5-0.8-0.4-1.1c0.7-1.6-0.6-3.1-0.3-4.6c0-0.2-0.1-0.5-0.2-0.6c-1.6-0.6-0.8-1.8-0.6-2.8
		c0.4-1.6,0.1-2-1.5-1.9c-0.2,0-0.7-0.3-0.7-0.4c0.1-0.6,0.3-1.1,0.6-1.6c0.1-0.2,0.7-0.2,0.9-0.5c0.2-0.2,0.1-0.6,0.2-0.9
		c-0.3,0-0.6-0.1-0.8,0c-1.2,0.5-2.2-0.2-2.3-1.6c0-0.7-0.2-1.4-0.2-2.1c0-0.7,0.3-1.3,0.6-1.9c0-0.1,0-0.2-0.1-0.2
		c-1.8-0.5-1.9-2.3-2.6-3.6c-0.8-1.4-2-2.1-3.5-2.7c-0.6-0.2-1.2-0.6-1.7-1.1c-0.8-0.8-1.4-1.7-2.2-2.4c-0.9-0.9-1.6-0.5-2,0.6
		c-0.2,0.6-0.8,1.2-1.3,1.5c-1,0.5-2.1,0.8-3.2,1.1c-0.3,0.1-0.6,0-1,0c0.1-0.3,0-0.7,0.2-0.9c0.4-0.7,0.7-1.4,1.3-1.9
		c0.6-0.6,1.4-0.9,2.1-1.4c0.3-0.2,0.5-0.4,0.7-0.6c-0.3-0.1-0.7-0.4-0.8-0.3c-1.3,0.8-2.5,1.6-3.7,2.5c-0.6,0.4-1.2,0.8-1.8,1.2
		c-0.4,0.3-1,0.6-1,0.9c0.2,1.7-1.1,2.2-2.1,2.8c-2.6,1.6-5.2,3.2-7.8,4.6c-1.1,0.6-2.4,0.8-3.6,1.2c-0.8,0.2-1.6,0.5-2.4,0.7
		c0.2-1.1,1.1-1.7,2.3-1.9c0.5-0.1,1.1-0.4,1.5-0.6c1-0.6,2-1.3,3.1-1.8c2-0.9,3-2.7,4-4.5c-1.2-0.5-2.3-0.9-3.4-1.4
		c-1.1-0.4-1.2-1.1-0.8-2.1c0.4-1,0.4-1.7-1-1.7c-0.9,0-1.5-1.4-1.1-2.6c0.2-0.7,0.2-1.5,0.3-2.2c0.1-0.5,0.2-1.1,0.5-1.5
		c1.2-1.2,2.5-2.3,3.7-3.5c0.1-0.1,0.3-0.3,0.4-0.2c1.3,0.6,2.5-0.4,3.7-0.3c1.2,0.1,1.9-0.3,2.2-1.4c0.1-0.2,0.2-0.4,0.2-0.6
		c0.1-0.6,0.3-1.2,0.4-1.8c-0.6,0.1-1.1,0.2-1.7,0.2c-1.3-0.2-2.7-0.3-3.9-0.8c-0.8-0.3-0.7-1.3-0.2-2c0.5-0.6,0.7-1.1,0.2-1.8
		c-0.1-0.2,0-0.8,0.2-1c0.4-0.4,1-0.6,1.5-0.8c0.9-0.3,1.9-0.5,2.8-0.8c1.2-0.4,1.4-0.2,1.4,1c0,0.4,0.4,1,0.7,1.2
		c0.5,0.2,1.2,0.3,1.8,0.1c0.7-0.2,1.3-0.7,1.9-1.1c-1-0.6-2-2.8-1.9-4.1c0-1,0-2.1-0.4-3c-0.3-1,0.1-1.5,0.6-2.2
		c0.5-0.6,1.1-0.6,1.9-0.5c0.9,0.1,2-0.1,2.9-0.4c1-0.4,1.8-1.3,2.7-1.9c0.3-0.2,0.7-0.6,1.1-0.6c1.6-0.3,3.2-0.2,4.4-1.6
		c0,0,0.1,0,0.1,0c1.4,0.4,2.7,0.4,3.9-0.4c0.1-0.1,0.4,0,0.5,0.1c0.9,1.2,2,2.3,2.7,3.6c0.5,0.8,0.6,1.7,1.8,1.6
		c0.3,0,0.6,0.2,0.8,0.5c1.4,1.6,3,2.7,5.1,3.2c0.1,0,0.2,0,0.2,0.1c1.3,1.4,2.8,2.8,3.9,4.4c0.7,0.9,1,2.1,2.4,2.1
		c1-1.5,1.2-1.6,2.9-0.9c0.1,0,0.2,0.1,0.2,0.1c1.3-0.3,2.6-0.4,3.8-0.9c0.8-0.4,1.4-0.8,2,0.2c0.2,0.3,0.8,0.4,1.1,0.3
		c0.5-0.1,1-0.4,1.8-0.7c-0.1,0.8-0.3,1.3-0.3,1.8c0,0.4,0.1,0.9,0.2,1.3c0.4-0.1,0.8-0.1,1.2-0.2c0.3-0.1,0.5-0.2,0.9-0.4
		c-0.1,0.4-0.1,0.6-0.2,0.9c0,0.3,0,0.5,0.1,0.8c0.3,0,0.6,0,0.8-0.1c0.3-0.1,0.6-0.5,0.9-0.4c0.6,0.1,1.4,0.3,1.6,0.7
		c0.9,1.9,2.4,3,4.3,3.7c0.4,0.1,0.7,0.3,1,0.6c0.3,0.3,0.7,0.8,0.7,1.2c0,0.2-0.7,0.5-1.1,0.7c-0.3,0.2-0.7,0.4-1,0.7
		c0.2,0.4,0.4,1,0.8,1.1c1,0.3,2.1,0.5,3.1,0.5c1.7-0.1,2.3,0.3,2.5,2c0.1,0.5,0.2,0.9,0.5,1.4c0.8-1.6,1.1-3.5,2.9-4
		c-0.3-0.3-0.8-0.7-1.2-1c0.6-0.2,1.3-0.4,1.9-0.5c0.8-0.1,1.2,0.3,1.4,1.3c0.3,1.9,2.5,3.4,4.4,3.7c1.7,0.2,2.7-0.6,3.7-1.6
		c0.2-0.2,0.2-1,0-1.2c-0.6-0.7-0.5-1.1,0.4-1.4c0.2-0.1,0.4-0.2,0.5-0.3c0.6-0.8,1.2-1.2,2-0.2c0.7,0.8,0.8,2.5-0.1,2.9
		c-1.4,0.7-1.3,2-1.8,3c-0.1,0.2,0.2,0.6,0.3,0.9c0.3-0.2,0.7-0.4,0.8-0.6c0.2-0.8,0.7-1.2,1.5-1.5c0.9-0.3,1.8-0.9,1.6-2.1
		c0-0.2,0.1-0.5,0.2-0.7c0.6-0.6,0.3-1-0.2-1.5c-1.4-1.3-1.2-1.5-0.7-3.3c0.5-1.9,1.9-2.7,3-3.9c0.9-0.9,1-1.9,1.5-2.8
		c0.7-1.5,1.4-2.9,2.4-4.2c0.3-0.4,1.4-0.5,2.1-0.4c0.8,0.1,1.6,0.6,2.3,1.1c0.2,0.1,0.3,0.8,0.1,1c-0.9,0.9-1.8,1.8-2.8,2.6
		c-0.1,0.1-0.3,0.2-0.5,0.2c-1.9-0.5-2.4,1.3-3.5,2.1c-0.2,0.1-0.2,0.5-0.2,0.8c0,1.5,0.2,3,0.2,4.5c0,0.5-0.3,1.1-0.6,1.4
		c-0.6,0.7-0.6,1.1-0.1,1.9C133.6,75.5,133.6,76.4,133.9,77.3z"/>
	<path d="M211.9,33.8c1.2,0,2,0.1,2.3,1.4c0.1,0.3,1,0.5,1.5,0.8c0.5,0.4,0.9,0.9,1.3,1.3c-0.4,0.4-0.8,1.1-1.3,1.2
		c-1.7,0.3-3.4,0.3-5.2,0.4c-1.1,0.1-2.3,0.2-3.4,0.3c0,0.2,0,0.3,0,0.5c0.5,0,0.9,0,1.4,0c0.7,0,1.4-0.1,2,0c1.6,0.3,1.7,0.4,1.4,2
		c1,0.3,1.7,0.2,2.2-0.9c0.1-0.3,0.8-0.3,1.2-0.4c0.1,0.4,0.3,0.9,0.1,1.2c-0.3,0.6-0.8,1.1-1.3,1.5c-0.3,0.3-0.8,0.5-1.2,0.7
		c0.2,0.2,0.3,0.5,0.5,0.7c0.8-0.3,1.5-0.5,2.3-0.9c1.2-0.6,2.4-1.4,3.6-2c1-0.5,2.8,0.1,3.4,1c0.6,0.8,0.3,1.6-0.6,2.3
		c-1.8,1.3-3.1,3-4.4,4.9c-1.3,1.9-1.9,4-2.6,6.1c-0.3,0.9-1,1.6-0.5,2.6c0.2,0.5,0.6,0.9,0.8,1.4c0.2,0.5,0.3,1,0.4,1.6
		c-0.4,0-0.9,0.1-1.3,0c-0.8-0.4-1.4-0.2-1.9,0.5c-0.5,0.7-0.1,1.1,0.5,1.5c0.9,0.8,1,2.6,0.4,3.7c-0.2,0.3-0.2,0.8-0.1,1.2
		c0,0.4,0.4,1.1,0.3,1.2c-0.3,0.3-0.9,0.3-1.3,0.4c-0.3,0.1-0.5,0-0.8,0c0,0.2-0.1,0.3-0.1,0.4c1,1.3,1,1.3-0.4,2.3
		c-0.6,0.4-1.1,0.9-0.8,1.7c0,0.2,0.1,0.4,0,0.5c-1.7,1.5,0,3-0.1,4.5c0,0.5-0.1,1.1-0.4,1.3c-0.3,0.3-0.9,0.3-1.3,0.2
		c-0.3-0.1-0.5-0.5-0.7-0.8c-0.3-0.3-0.7-0.6-1.1-1c-0.3,0.9-0.5,1.6-0.8,2.4c0.5,0.1,1.2,0.3,1.9,0.5c0.3,0.1,0.6,0.3,0.7,0.6
		c0.1,0.1-0.2,0.6-0.4,0.7c-1.8,1-3.2,2.6-5.5,2.8c-1.4,0.1-2.9,0.4-4.2,0.9c-1,0.4-1.9,1.3-2.6,2.2c-1.3,1.6-2.7,2.9-5.1,2.9
		c-1.1,0-2.2,0.7-3.1,1.4c-0.9,0.7-1.5,1.7-1.5,3c0,0.2-0.1,0.4-0.2,0.5c-2.1,1.8-2.5,4.4-3.6,6.7c-0.3,0.5-0.9,1.3-1.4,1.2
		c-0.6,0-1.1-0.7-1.7-1.1c-0.4-0.3-0.7-0.7-1.1-0.8c-1.5-0.2-2.3-0.8-2.7-2.3c-0.3-1.2-0.8-2.4-1.1-3.6c-0.2-0.7-0.1-1.4-0.1-2.1
		c0-0.2,0-0.5,0-0.7c-0.4-1.4-1.1-2.8-1.1-4.2c0-2.3,0.4-4.4,2.7-5.8c1-0.6,1.5-1.8,2.2-2.8c0.5-0.7,0.3-1.2-0.6-1.3
		c-0.3,0-0.6-0.1-0.6-0.1c-0.4,0.6-0.7,1.3-1.2,1.6c-0.3,0.2-1.3-0.3-1.4-0.6c-0.2-0.6,0-1.4,0.1-2.1c0-0.3,0.3-0.5,0.4-0.8
		c0.3-0.8,0.8-0.9,1.5-0.6c0.4,0.2,0.8,0.3,1.2,0.5c0.1-0.1,0.2-0.1,0.4-0.2c-0.2-0.8-0.3-1.6-0.6-2.3c-0.1-0.2-0.7-0.2-1.1-0.2
		c-0.4,0-1.1,0.1-1.2-0.1c-0.2-0.3-0.2-0.9,0-1.3c0.3-0.9,0.8-1.8,1.1-2.7c0.1-0.2,0.2-0.5,0.2-0.7c-0.3-2.5-0.6-4.9-0.9-7.4
		c0-0.1-0.1-0.3-0.1-0.4c0.7-1.6-0.4-2.4-1.5-3.2c-1-0.7-2-1.5-3.5-1.2c-1,0.2-2.1,0.1-3.1,0c-0.8,0-1.3-1-1.3-1.9
		c0-0.5-0.2-1-0.2-1.5c-0.1-0.4-0.3-1-0.1-1.3c0.2-0.3,0.8-0.5,1.2-0.5c0.9-0.1,1.8,0,2.6,0c0-0.1,0-0.3,0-0.4
		c-0.1-0.1-0.2-0.3-0.3-0.3c-1.7,0.3-2.3-1-3-2c-0.8-1-0.4-2.1,0.8-2.5c1.5-0.4,2.9-0.8,4.4-1.2c0.3-0.1,0.6-0.1,0.9,0
		c1.6,0.3,3.4-0.9,3.6-2.5c0-0.3-0.4-0.9-0.8-1c-0.8-0.4-0.9-0.8-0.3-1.4c1.4-1.3,2.9-2.7,5-2.5c1.4,0.1,1.6-1,1.8-1.9
		c0.3-0.8,0.4-1.5,1.5-1.2c0.1,0,0.3,0,0.4-0.1c1.3-1.7,3.3-0.6,4.9-1.3c0.7-0.3,1.1,0.4,0.9,1.1c-0.4,1.3,0.7,1.9,1.4,2.4
		c0.6,0.4,1.2-0.1,1.4-0.8c0.1-0.4-0.1-0.8,0.1-1.1c0.2-0.4,0.5-0.8,0.8-1.1c0.4,0.3,0.9,0.5,1.1,1c0.3,0.7,0.4,1.5,0.6,2.2
		c0.2,0.8,0.7,1.3,1.7,1.3c-0.2-1.2-0.3-2.3-0.5-3.4c-0.1-0.8,0.1-1.3,0.9-1.6c0.4-0.1,0.7-0.6,0.9-1.1c0.5-1.4,1.6-2.1,3-1.4
		c1.2,0.6,2.1,0.2,2.8-0.6c1.3-1.4,2.8-1.5,4.4-0.9c1.1,0.4,2.2,0.6,3.3,1C212.6,32.2,212.6,32.3,211.9,33.8z"/>
	<path d="M420.5,259.4c0.2-0.7,0.4-1.4,0.6-2.1c-0.1-0.1-0.2-0.2-0.3-0.3c-0.6,0.4-1.2,0.9-1.8,1.4c-0.9,0.8-1.1,0.8-1.5-0.4
		c-0.4-1-0.6-2.3-1.3-3c-1.6-1.4-5.1-2.9-7.4-1.4c-0.4,0.2-0.9,0.4-1.3,0.4c-2.4-0.1-4.2,0.9-5.8,2.5c-0.4,0.4-1.2,0.5-1.8,0.4
		c-2.2-0.5-4.1,0.2-5.9,1.3c-1.2,0.7-2.3,0.4-3.3-0.4c-0.8-0.6-1-1.3-0.3-2.3c0.6-0.9,0.9-2.2,0.8-3.2c-0.2-2.5-0.9-4.9-0.9-7.4
		c0-1.6,0.3-3.2,0.2-4.9c-0.1-0.8,0.4-1.7,0.7-2.5c0.1-0.4,0.4-0.8,0.7-1c1.1-0.6,2.2-1.3,3.4-1.7c1.9-0.7,3.9-1.1,5.8-1.7
		c1.5-0.5,2.3-1.7,2.7-3.1c0.2-0.8,0.4-1.1,1.4-1.2c0.7-0.1,1.4-0.9,2-1.5c0.9-0.8,1.7-1.7,2.6-2.5c0.8-0.7,1.5-0.5,2.2,0.3
		c1.2,1.3,1.7,1.1,2.5-0.4c0.7-1.3,1.5-2.7,3.3-2.8c0.2,0,0.6-0.1,0.7-0.2c0.7-1.3,1.6-0.6,2.5-0.4c1,0.2,2,0.4,3.1,0.6
		c0.2,0,0.6,0.2,0.6,0.3c0.1,0.2,0,0.6-0.2,0.8c-2.3,2.2-1.7,3.7,1.1,5.3c0.9,0.5,1.7,1.1,2.5,1.7c0.9,0.6,1.7,0.5,2.1-0.4
		c0.5-1.1,0.8-2.4,1.1-3.6c0.3-1.4,0.5-2.7,0.8-4.1c0.1-0.4,0.4-0.6,0.7-1c0.3,0.3,0.8,0.5,1,0.8c0.2,0.5,0.3,1.1,0.4,1.6
		c0.1,0.9,0.2,1.7,1.3,1.9c0.3,0.1,0.6,0.5,0.7,0.8c0.4,1.8,0.7,3.6,1.2,5.4c0.2,0.6,0.5,1.3,1,1.7c1.4,1,2.4,2.2,2.8,3.9
		c0,0.2,0,0.4,0.2,0.5c1.9,1.3,1.9,3.8,3.6,5.3c0.3,0.2,0.4,0.8,0.4,1.1c0,1.5,0.1,3-0.2,4.4c-0.2,1.4-1,2.8-1.3,4.2
		c-0.5,2.2-2.1,3.7-3.4,5.5c-1.7,2.4-3.3,4.9-4.2,7.8c-0.1,0.5-0.8,1.1-1.2,1.1c-1.4-0.1-2.4,0.6-3.4,1.4c-0.7,0.6-1.4,0.7-1.9-0.3
		c-0.5-0.9-1-1.1-1.8-0.4c-0.7,0.6-1.4,0.6-2.2,0c-1-0.8-2.6-0.9-2.9-2.4c-0.1-0.4-0.3-0.8-0.2-1.1c1-1.7-0.8-2.9-0.9-4.4
		C421.6,259.6,420.9,259.5,420.5,259.4z"/>
	<path d="M156.6,40.7c0.5-1.1,0.7-2.3,1.4-2.9c1.4-1.1,1.6,0.9,2.5,1.3c0.4-0.4,0.9-0.7,1.3-1.1c0.2-0.2,0.3-0.4,0.4-0.7
		c-0.3-0.2-0.7-0.6-0.9-0.5c-2.1,0.8-2.6-1.5-4.1-2c-0.3-0.1,0.5-5.3,0.9-5.3c1-0.1,2.1-0.3,3.1,0c1,0.2,1.5,0.2,2-0.8
		c0.5-1.2,1-1.1,1.8-0.1c0.5,0.8,1.2,0.7,1.8-0.3c0.8-1.4,1-1.4,2.5-0.6c0.8-1.8,1.8-0.5,2.7-0.1c1.2-1.4,1.3-1.4,2.7-0.4
		c0.2,0.2,0.6,0.4,0.8,0.3c2.2-0.5,3.6,1.2,5.3,2c1.4,0.7,2.1,1.9,2.7,3.2c0.2,0.5,0.2,1.4-0.1,1.7c-1.1,0.9-2.2,1.9-3.8,1.8
		c-0.6,0-1.2,0.1-2,0.2c0.3,0.6,0.5,1,0.8,1.5c-1.5,0.7-3,1.3-4.3,2.1c-1.5,0.8-3.2,1.4-4.2,2.9c-0.2,0.3-0.7,0.4-1.1,0.4
		c-2.5,0-3.5,0.8-4,3.2c-0.2,0.9-2.4,2.8-3.5,2.8c-0.7,0-1.1,0.3-1.5,1c-0.2,0.4-0.7,0.7-1.1,1c-0.9,0.5-1.6,0.9-0.8,2
		c0.1,0.2,0,0.8-0.2,1c-0.8,1-2.2,0.9-3.3,0.3c-1.1-0.7-2.4-1.5-3.9-0.8c-0.3,0.1-0.7,0-1.1-0.2c-0.9-0.4-1.6-1.1-2.5-1.1
		c-0.7-0.1-1.5,0.5-2.1,1c-0.1,0.1,0.2,1.1,0.6,1.4c0.9,0.8,2,1.4,3.3,1.2c1-0.1,2-0.2,2.9,0.1c0.8,0.2,1.8,0.8,2,1.4
		c0.2,0.6-0.2,1.7-0.7,2.4c-0.8,1-2.1,0.9-3.2,0.5c-1-0.4-2.1-0.4-3.1-0.7c-1.6-0.5-3.2-1.1-4.7-1.8c-0.4-0.2-0.7-1.1-0.6-1.6
		c0.1-0.7,0.6-1.4,1-2c0.8-1.2,0.6-2.5-0.7-3.1c-1.2-0.5-1-1.6-1.1-2.5c0-0.2,0.8-0.7,1.1-0.6c0.5,0.2,0.9,0.8,1.4,1.2
		c0.8,0.7,1.5,1.4,2.4,2c0.2,0.2,0.8,0,1.2-0.1c1.1-0.4,2.3-0.7,3.4-1.3c0.3-0.2,0.5-0.8,0.6-1.2c0.2-0.5,0.3-0.9,0.5-1.4
		c0.4,0.2,0.7,0.5,1.1,0.7c0.3,0.2,0.6,0.3,0.9,0.4c0-0.4,0.2-0.9,0-1.1c-0.5-0.6-1.5-1.1-0.8-1.8c0.7-0.8,1.7-1.4,2.6-1.8
		c0.7-0.3,1.5-0.2,1.2-1.6c-1.4,0.8-2.9,1.5-4.1,2.4c-1,0.8-2.8,1.3-3.6,0.4c-0.5-0.5-0.5-1.6-0.5-2.4c0-0.4,0.6-0.9,1-1.3
		c0.2-0.2,0.6-0.2,0.9-0.4c0-0.2,0-0.4-0.1-0.5c-0.6-0.6-1.7-0.8-1.1-2.1c0.4-0.8,0.8-1.5,1.2-2.2c0.6-1.2,1.4-1.9,2.3-2.6
		c0.7-0.6,1.3-1.4,2.1-2c0.1-0.1,0.8,0.2,0.9,0.4c0.2,0.3,0.2,0.8,0.1,1.2c-0.3,1.2-0.1,2.1,0.9,2.9c1,0.8,0.5,1.8,0,2.6
		C155.7,39.4,155.6,40.1,156.6,40.7z"/>
	<path d="M118.9,63.9c0.3-0.4,0.8-0.8,0.9-1.3c0.4-1.1,0.8-2.3,1.2-3.5c0.1-0.2,0.2-0.4,0.2-0.4c1.3,0.1,2.1-0.9,3-1.5
		c0.3-0.2,1.2,0.2,1.5,0.6c0.2,0.3-0.1,1.3-0.4,1.4c-2.4,1.2-2.6,3.5-3.2,5.6c-0.1,0.4-0.3,0.7-0.4,1.1c-0.1,0.5-0.2,1.2,0,1.6
		c0.4,0.9,1,1.7,1.4,2.6c0.2,0.4,0.2,0.9,0.1,1.3c-0.1,0.2-0.8,0.4-1.1,0.3c-1-0.3-1.3,0-1.2,1.1c0.2,1.1-0.5,1.6-1.4,1.3
		c-1-0.3-1.8-1.1-2.7-1.6c-0.4-0.2-0.8-0.6-1.1-0.6c-0.8,0.1-1.8,0.2-2.4,0.6c-1.3,0.9-2.7,0.6-4.1,0.5c-1,0-1.5-0.6-1.3-1.6
		c0.2-0.9-0.2-1.2-0.9-1.7c-0.6-0.4-1.2-1.1-1.4-1.8c-0.3-1,0.5-1.8,1.6-1.6c1.1,0.2,2.2,0.6,3.3,0.9c0.4,0.1,0.9,0,1.4-0.1
		c-0.2-0.4-0.3-1-0.7-1.3c-0.4-0.3-1-0.5-1.6-0.6c-0.5-0.1-1.1,0-1.6-0.2c-0.6-0.2-1-0.7-1.5-1c0.3-0.4,0.8-0.8,1-1.3
		c0.2-0.3,0.3-0.8,0.1-1c-0.7-0.9-0.3-1.5,0.4-2.1c0.8-0.6,1.5-1.3,2.3-2.2c-0.4,0-1-0.1-1.3,0.2c-1.2,0.8-2.5,1.7-3.5,2.7
		c-1,0.9-2.1,0.3-3.1,0.7c0,0-0.2-0.1-0.2-0.1c-0.5-0.4-0.6-3.4-0.1-3.9c1-1,2.1-2,3.1-3c0.8-0.8,1.8-1.4,1.9-2.7
		c0-0.2,0.2-0.4,0.4-0.5c0.5-0.4,3-0.1,3.6,0.3c0.7,0.5,1.7,0.8,2.3,1.4c0.5,0.5,0.9,1.3,1.1,2c0.2,1.1,0.2,2.2,0.4,3.3
		c0,0.3,0.4,0.6,0.7,0.7c0.8,0.1,1.2,0.5,1.3,1.3c0.1,0.8,0.4,1.1,1.2,0.6c0.9-0.5,1.1,0.2,1,0.8c-0.1,0.9-0.4,1.9-0.5,2.8
		C118.6,63.7,118.8,63.8,118.9,63.9z"/>
	<path d="M443.7,218.6c-1.7,0.3-2.9,0.2-3.8-0.8c-0.7-0.7-1.3-1.6-2.1-2.2c-1.3-1.1-2.4-0.9-3.3,0.5c-0.8,1.2-3.1,1.5-4.1,0.5
		c-0.7-0.7-1.4-1.2-2.4-0.7c-0.2,0.1-0.5,0-0.7-0.2c-0.1-0.1,0-0.5,0.1-0.7c0.8-1.4,0.1-3.3-1.5-3.9c-1.3-0.5-2.6-1.1-4-1.7
		c-0.2-0.1-0.5-0.1-0.7-0.1c-0.5-0.1-1.1,0-1.4-0.3c-0.2-0.2,0.1-0.9,0.2-1.4c-0.7-0.6-1.6-1.3-2.5-1.9c0-0.2,0.1-0.4,0.1-0.6
		c1-0.1,2-0.3,3-0.2c1.1,0.1,1.5,0.8,1.4,2c0,0.5,0.7,1.2,1.2,1.7c0.2,0.1,0.9-0.3,1.2-0.5c0.6-0.5,1.2-1.1,1.8-1.5
		c0.3-0.2,0.8-0.3,1.1-0.2c2,0.7,4,1.5,6,2.2c0.6,0.2,1.2,0.4,1.8,0.6c1.2,0.5,2.5,0.9,3,2.3c0.1,0.4,0.7,0.6,1.1,0.8
		c0.8,0.3,1.2,0.7,1,1.7c-0.1,0.4,0.2,1,0.5,1.4C441.6,216.3,442.5,217.3,443.7,218.6z"/>
	<path d="M386.8,203.2c0-1.5,0.4-1.8,1.7-1.6c0.4,0.1,0.9,0,1.2-0.2c1.9-1.9,3.9-3.7,6-5.4c0.5-0.4,0.8-0.9,1.1-1.4
		c0.5-0.7,1.1-0.8,1.6,0c0.1,0.1,0.1,0.2,0.2,0.3c0.4,0.5,1.2,1,1.2,1.5c0,0.5-0.8,1-1.1,1.5c-0.2,0.5-0.4,1.1-0.2,1.6
		c0.2,0.8,0.7,1.6,1,2.4c0.1,0.3-0.2,0.7-0.4,1c-0.3,0.5-0.9,1-1.1,1.5c-0.6,1.3-1,2.7-1.6,4.1c-0.5,1.2-1.3,1.3-2.5,0.7
		c-0.6-0.3-1.3-0.3-2-0.5c-1.1-0.3-2.3-0.6-3.4-0.9c-0.1,0-0.1-0.1-0.2-0.2C387.8,206.1,387.3,204.6,386.8,203.2z"/>
	<path d="M303.4,224.1c-0.3,0.8-0.5,1.5-0.8,2.3c-0.2,0.6-0.3,1.2-0.5,1.8c-0.8,2.4-1.7,4.9-2.6,7.3c-0.2,0.5-0.4,1-0.5,1.6
		c-0.3,1.4-1.2,2.3-2.6,2.7c-1.7,0.5-2.9-0.4-3.3-2.1c-0.4-2.1,0.1-3.7,1.3-5.4c0.4-0.6,0.2-1.7,0-2.5c-0.3-1.4,0.4-3.3,1.7-3.5
		c2.4-0.3,3.6-2,4.9-3.7c0.3-0.4,0.8-0.8,1.2-1.2c0.2,0.6,0.5,1.2,0.7,1.8c0.1,0.3,0,0.6,0.1,0.9C303.3,224,303.4,224.1,303.4,224.1
		z"/>
	<path d="M288.9,65c0.3-0.7,0.7-1.4,1-2.1c0.6-1,1.1-2,1.8-2.8c0.6-0.7,1.4-1.2,2.3-1.5c1.3-0.4,2.1-1.1,2.8-2.2
		c0.3-0.5,1.2-1.2,1.5-1.1c0.6,0.2,1.2,0.9,1.4,1.6c0.1,0.4-0.5,1.1-0.9,1.6c-0.5,0.5-1.3,0.7-1.7,1.2c-1.1,1.2-1.9,2.7-3,3.9
		c-1.7,1.8-1.8,4.2-2.4,6.4c-0.7,2.7,0,5,2.3,6.7c0.3,0.2,0.5,0.6,0.7,1c-0.4,0.2-0.8,0.4-1.2,0.4c-1.1,0-2.2,0-3-1.2
		c-0.3-0.4-1.1-0.6-1.7-0.8c-1.2-0.4-1.4-1.1-0.7-2.1c0.1-0.1,0.2-0.2,0.2-0.3c0.1-1.6,0.2-3.1,0.3-4.7c0-0.5,0-0.9,0.1-1.4
		c0.2-0.8,0.4-1.6,0.7-2.4C289.2,65.2,289,65.1,288.9,65z"/>
	<path d="M413.9,149.3c-0.9-0.1-1.4,0-1.1,1.2c0.3,1,0.1,2.2,0.1,3.3c0,0.2-0.5,0.6-0.6,0.6c-0.4-0.1-0.8-0.4-0.9-0.7
		c-0.4-0.7-0.6-1.5-0.9-2.2c-0.1-0.3-0.1-0.6,0.1-0.8c1.5-2,2.5-4.6,5.7-4.7c0.5,0,1.1-0.7,1.4-1.2c0.4-0.8,0.6-1.5,1.8-1.8
		c0.7-0.2,1.3-1.6,1.5-2.5c0.2-1.2-0.1-2.4-0.1-3.6c0-0.6,0.1-1.7,0.4-1.9c0.8-0.4,1.3,0.4,1.7,1c1,1.4,1.4,2.9,0.4,4.5
		c-0.1,0.2-0.1,0.5-0.1,0.7c0.2,1.3,0.4,2.7,0.6,4c0.1,0.9,0,1.7-1.3,1.4c-0.3-0.1-0.6,0.2-0.9,0.4c-0.5,0.2-1.1,0.4-1.6,0.7
		c-0.4,0.3-1,0.6-1.2,1c-0.3,0.7-0.6,0.9-1.4,0.9c-0.9,0-1.7,0.5-2.6,0.8c-0.3,0.1-0.6,0.3-0.9,0.5c-0.1-0.3-0.2-0.6-0.2-0.9
		C414,149.7,414,149.5,413.9,149.3z"/>
	<path d="M367.3,196.4c1.8-0.6,2.8-0.2,3.8,0.8c1.1,1.1,2.4,2.1,3.7,3.1c1.1,0.9,2.3,1.7,3.4,2.7c0.4,0.3,0.6,0.8,0.8,1.2
		c0.6,1.5,1.3,2.9,3.1,3.1c0.2,0,0.4,0.6,0.3,1c-0.1,0.8-0.4,1.6-0.4,2.5c-0.1,1.2-1.1,1.9-2.1,1.1c-2.1-1.6-4.1-3.1-5.3-5.7
		c-1.4-3.2-3.3-6.2-6.2-8.4C368.1,197.5,367.8,196.9,367.3,196.4z"/>
	<path d="M227.6,126.3c0.5-0.6,0.9-1.2,1.4-1.9c-0.5-0.2-0.9-0.5-1.3-0.7c0.2-0.8,0.4-1.5,0.6-2.2c0.1-0.3,0.4-0.5,0.7-0.6
		c0.9-0.5,1-1.1,0.4-1.9c-0.2-0.3-0.4-0.7-0.8-0.8c-1.4-0.7-1.6-2.2-2.3-3.3c-0.6-1.1,0-3.1,1-3.8c0.6-0.5,1-0.4,1.4,0.3
		c0.2,0.4,0.6,0.8,1.1,0.9c0.9,0.3,1,0.8,0.6,1.4c-0.7,1-0.5,1.6,0.3,2.5c1,1.1,1.7,2.4,2.6,3.6c0.5,0.6,1.2,1.1,1.7,1.8
		c0.3,0.4,0.3,0.9,0.5,1.3c0,0.1-0.2,0.2-0.2,0.3c-0.1,2.6-2.1,2.5-3.9,2.7c-0.8,0.1-1.6,0.3-2.3,0.5c-0.4,0.1-0.8,0.1-1.3,0.2
		C227.8,126.5,227.7,126.4,227.6,126.3z"/>
	<path d="M246.8,58.5c-0.9-0.7-1.1-1.3,0.1-1.9c0.3-0.2,0.5-0.6,0.8-0.9c-0.1-0.1-0.2-0.3-0.2-0.4c-0.4,0.2-1,0.4-1.3,0.7
		c-0.5,0.5-0.8,0.4-1.4,0.1c-1.5-0.9-1.2-2.6-1.8-3.9c-0.4-0.9,0.9-1.9,1.9-1.4c1,0.5,1.6,0.6,2.3-0.5c0.6-0.9,1.7-0.3,1.9,0.2
		c1.4,2.8,4.3,4.3,6,6.7c0.3,0.4,0.6,1,0.5,1.3c-0.2,0.4-0.8,0.7-1.3,0.8c-0.7,0.1-1.1-0.3-1.3-1.1c-0.1-0.8-0.4-1.6-0.7-2.4
		c-0.1-0.3-0.5-0.5-0.8-0.7c-0.2,0.3-0.5,0.6-0.6,0.9c-0.4,1.9-0.8,3.7-1.2,5.6c-0.1,0.3-0.2,0.5-0.3,0.8
		C247.4,61.6,246.2,59.9,246.8,58.5z"/>
	<path d="M119.7,50.3c-0.4,0-0.9,0.1-1.3-0.1c-0.6-0.3-1-0.7-1.6-1.1c0.3-0.4,0.6-0.8,1-1.2c0.5-0.6,1.1-1.1,1.5-1.7
		c0.6-0.9,1.6-1.5,2.4-1.1c0.8,0.4,1.2,1.5,1.7,2.3c0.2,0.3,0,0.7,0.1,1c0.4,0.5,0.8,0.9,1.3,1.4c0.3-0.4,0.7-0.7,0.9-1.1
		c0.2-0.6,0.3-1.2,0.5-1.8c0.2-0.5,0.6-0.9,1-1.2c0.5-0.3,0.9,0,0.9,0.6c0,0.4-0.1,0.8-0.2,1.1c-0.2,1-0.4,2,1.3,1.7
		c0.9-0.1,0.8,0.7,0.5,1.3c-0.9,1.7-2.8,2.3-4.6,2c-1-0.2-2,0.2-3.1,0.4c-0.7,0.1-1.5,0.4-2.2,0.3c-0.5,0-0.9-0.6-1.3-0.9
		c0.3-0.3,0.6-0.7,0.9-1c0.1-0.1,0.4-0.1,0.6-0.2C119.9,50.6,119.8,50.4,119.7,50.3z"/>
	<path d="M466.4,278.8c-0.4,0.5-0.6,0.9-0.9,1.3c-0.9,1.1-1.8,2.2-2.6,3.3c-0.1,0.2-0.3,0.4-0.4,0.4c-1.8,0.2-2.3,1.7-3.2,2.8
		c-0.8,1-1.7,2-2.7,2.9c-0.8,0.8-1.6,0.5-2.8-0.6c-0.8-0.7-0.8-1.6-0.1-2.2c1-1,2.1-2,3.2-2.8c1.2-0.9,2.5-1.4,3.6-2.3
		c1.2-1,2.1-2.4,3.2-3.6c0.4-0.4,0.8-0.7,1.2-1.1C465.3,277.4,465.8,278.1,466.4,278.8z"/>
	<path d="M207.4,95.4c0.1-0.1,0.4-0.4,0.8-0.8c-0.6-0.4-1.1-0.7-1.9-1.2c0.6-0.4,1.1-0.9,1.7-1c0.3-0.1,0.9,0.4,1.1,0.8
		c0.4,0.6,0.8,0.8,1.4,0.5c1.5-0.5,3.1-1,4.7-1.4c0.3-0.1,0.7-0.1,0.8,0.1c0.6,0.8,1.5,1.6,1.5,2.5c0,0.7-0.8,1.7-1.5,2.2
		c-0.8,0.7-1.9,1.2-2.9,1.5c-0.9,0.3-1.9,0.2-2.9,0.2c-0.5,0-1.1-0.3-1.5-0.6c-0.3-0.2-0.6-0.7-0.8-1.1
		C207.7,96.6,207.6,96.1,207.4,95.4z"/>
	<path d="M321.2,41.2c-1.3-0.5-2.7-0.9-3.9-1.5c-0.6-0.3-0.9-1.1-1.3-1.7c-0.2-0.2-0.3-0.4-0.5-0.6c-0.2,0.2-0.3,0.4-0.5,0.6
		c-0.2,0.3-0.4,0.6-0.6,1c-0.3-0.3-0.7-0.6-0.8-1c-0.5-1-0.8-1.9-1.2-2.9c-0.4-1.1-0.1-2.7,0.8-3.3c0.2-0.1,0.6-0.2,0.8,0
		c1,1.1,2,2.2,3.1,3.3c0.3,0.3,0.7,0.6,1.1,0.6c2.6,0.2,3.5,0.2,4,2.7c0.1,0.2,0.3,0.4,0.4,0.7c0.2,0.5,0.5,1.2,0.3,1.6
		C322.7,40.8,321.9,40.9,321.2,41.2z"/>
	<path d="M372.3,38.1c0.7-0.4,1.3-0.9,1.8-1c0.9-0.1,1.6,0.5,1.8,1.5c0.2,1-0.2,1.5-0.9,2c-1,0.7-1.9,1.5-2.9,2.2
		c-0.4,0.3-0.9,0.5-1.2,0.5c-1.8-0.3-4-2.4-3.9-4.4c0-0.5,0.2-1,0.5-1.3c0.1-0.1,0.8,0.3,1.2,0.4c0.5,0.1,1.2,0.2,1.4,0
		C371,36.7,371.5,36.7,372.3,38.1C372.3,38.1,372.4,38.2,372.3,38.1z"/>
	<path d="M132.1,58.4c0.1,0,0.4,0,0.8,0c1,0.2,1.2,0.9,0.6,1.7c-0.3,0.4-0.7,0.6-1,1c-0.2,0.3-0.3,0.8-0.2,1.1
		c0.6,1.5-0.1,3.5-1.7,4.1c-0.3,0.1-0.7,0.2-1,0.4c-1.5,0.8-1.5,0.8-1.9-1c-0.1-0.6-0.5-1.1-0.7-1.6c-0.2-0.6-0.6-1.2-0.6-1.8
		c0-0.4,0.3-0.8,0.6-1.1c0.1-0.1,0.6,0.2,0.9,0.4c0.3,0.1,0.7,0.4,0.8,0.3c0.2-0.2,0.4-0.6,0.4-1C129.5,58.8,129.9,58.3,132.1,58.4z
		"/>
	<path d="M474.7,271c-0.5,0.7-1,1.4-1.5,2c-0.6,0.8-1.3,1.6-2,2.4c-0.7,0.9-1.4,1.8-2.2,2.6c-0.2,0.2-0.7,0.1-1.1,0.2
		c0-0.4-0.1-0.9,0.1-1.1c1-1,0.8-1.9-0.1-2.8c-0.2-0.2-0.2-1.1,0-1.1c1.5-0.6,1.5-2.3,2.2-3.4c0.3-0.5,0.6-0.9,0.9-1.4
		c0.4,0.4,0.9,0.8,1.1,1.2c0.5,1.2,1.3,1.3,2.5,0.9C474.5,270.7,474.6,270.8,474.7,271z"/>
	<path d="M119.4,42.2c-0.7,0.6-1.3,1.2-2,1.8c-0.9,0.9-3,0.7-3.5-0.4c-0.1-0.3,0.3-1.2,0.7-1.3c1.9-0.9,3.8-1.9,5.8-2.6
		c0.9-0.3,2.1,0,3.1,0.2c0.1,0,0.2,0.7,0.1,0.8c-1.3,1.1-2,3-4.2,3.4c0.1-0.6,0.3-1.1,0.4-1.6C119.6,42.4,119.5,42.3,119.4,42.2z"/>
	<path d="M257.1,49.1c-0.1,1.9-2,3.1-3.6,3c-1.7,0-2.4-1.7-3.8-2.1c-0.2-0.1-0.3-1.2-0.1-1.6c0.2-0.3,1.1-0.6,1.4-0.5
		c0.9,0.4,1.5,0.3,2.5,0.1c0.9-0.3,2.1,0.1,3.2,0.3C256.9,48.5,257.1,49,257.1,49.1z"/>
	<path d="M225.9,120.5c0.3,1.5-0.2,2.4-1.6,2.6c-0.5,0.1-1,0.6-1.5,0.7c-0.5,0.1-1.1,0-1.5-0.3c-0.2-0.1,0.1-0.9,0.2-1.3
		c0.1-0.6,0.3-1.3,0.2-1.9c-0.1-0.8-0.1-1.3,0.7-1.7c0.3-0.2,0.6-0.5,0.9-0.9c0.6-0.8,1.6-1.1,2.4-0.6c0.8,0.5,1.2,1.1,0.4,2.1
		C225.9,119.6,226,120.2,225.9,120.5z"/>
	<path d="M420.9,133.2c-1.1-0.1-1.9-1.9-1.3-2.4c1.4-1.4,1.3-2.9,0.6-4.5c-0.1-0.3,0-0.6,0.1-0.9c0.3,0.1,0.7,0.2,1,0.4
		c1.2,0.9,2.3,2.2,4.1,2.1c0.2,0,0.7,0.5,0.7,0.8c0,0.4-0.2,0.9-0.5,1.3c-0.4,0.5-0.9,1-1.4,1.4c-0.3,0.2-0.8,0.2-1.1,0.2
		c-0.4-0.1-0.8-0.4-1.3-0.4c-0.7,0-1.3,0.2-0.7,1.2C421,132.5,420.9,132.9,420.9,133.2z"/>
	<path d="M132.7,47.6c0.2,0.7,0.4,1.4,0.5,1.9c0.8,0,1.5,0,2.4,0c0-0.1,0.2-0.3,0.2-0.6c0.3-0.8,0.7-0.9,1.4-0.5
		c1.7,1,1.8,1,0.7,2.7c-0.6,0.9-1.4,1.7-2,2.6c-0.6,0.9-1.4,1.1-2.1,0.5c-0.3-0.3-0.2-1.1-0.1-1.8C132.3,51.2,131.7,49.7,132.7,47.6
		z"/>
	<path d="M401.5,204.5c1.1,1.5,2.2,1.2,3.5,0.6c0.3-0.2,0.9,0.1,1.3,0.2c0,0.1,0,0.2,0,0.3c-0.2,0.1-0.4,0.3-0.6,0.4
		c-1.3,0.6-1.4,0.9-0.7,2.1c0.5,0.9,0.8,1.9,0.5,3c-0.1,0.1-0.3,0.2-0.4,0.2c-0.7-1-1.5-1.9-2.2-2.9c-0.1,0-0.2,0.1-0.4,0.1
		c0,0.8,0,1.6-0.2,2.4c-0.1,0.3-0.4,0.6-0.6,0.9c-0.2-0.3-0.5-0.6-0.7-1c-0.2-0.7-0.4-1.4-0.6-2.1c-0.1-0.2-0.2-0.4-0.2-0.6
		C400.5,207,401,205.9,401.5,204.5z"/>
	<path d="M142.6,39.9c-0.2,0.5-0.2,0.7-0.3,1c-0.4,0.8-0.8,1.7-1.3,2.5c-0.2,0.3-0.5,0.5-0.8,0.6c-0.1,0-0.5-0.5-0.5-0.7
		c0.3-1.3-0.7-1.7-1.5-2.2c-0.4-0.2-0.6-0.6-0.9-0.9c0.3-0.2,0.7-0.3,1-0.6c0.3-0.3,0.6-0.7,0.6-1c0.1-0.4-0.3-0.8-0.2-1.2
		c0.1-0.4,0.3-0.9,0.6-1.1c0.3-0.2,1.1-0.2,1.3,0.1C141.3,37.5,142,38.8,142.6,39.9z"/>
	<path d="M393.9,216c-0.6,0-1.3,0.1-1.9,0c-2.7-0.4-5.3-0.7-8-1.2c-0.8-0.2-2-0.5-1.8-1.6c0.3-1.2,1.4-0.4,2.2-0.4
		c0.2,0,0.5,0.1,0.7,0.2c1.3,0.9,2.7,1.2,4.3,0.4c0.4-0.2,1.3,0.4,2,0.7c0.9,0.5,1.8,1,2.8,1.5C394,215.7,393.9,215.8,393.9,216z"/>
	<path d="M405.6,183.8c-0.3,0-0.7,0-1-0.1c-0.8-0.3-1.3-0.2-1.5,0.8c0,0.2-0.3,0.3-0.5,0.5c-0.2-0.2-0.4-0.4-0.5-0.7
		c-0.3-0.8-0.6-1.7-1-2.5c-0.7-1.7-0.2-3.3,0.3-4.8c0.3-0.8,1.6-0.8,2-0.1c0.6,0.9,0.9,1.9,0.2,3c-0.9,1.5-0.5,2.4,1.1,3.1
		c0.3,0.1,0.5,0.3,0.8,0.5C405.6,183.6,405.6,183.7,405.6,183.8z"/>
	<path d="M426.9,276.9c0-1,0-1.9,0-2.9c0-0.9,0.5-1.1,1.3-0.8c0.7,0.3,1.5,0.5,2.2,0.5c0.9,0,1.1,0.3,1,1.1c-0.4,1.8-1.5,3.2-3.2,4
		c-0.7,0.3-1.1,0.1-1.2-0.6C426.9,277.7,426.9,277.3,426.9,276.9C426.8,276.9,426.9,276.9,426.9,276.9z"/>
	<path d="M326,43.7c-0.3-0.4-0.7-0.8-0.8-1.2c-0.4-1.3-0.6-2.6-0.9-3.9c-0.1-0.6,0.1-1.1,0.8-0.9c1.2,0.4,2.4,0.9,3.5,1.5
		c1,0.6,1,1.8,0.1,2.5c-0.7,0.6-1.4,1.1-2,1.6C326.5,43.4,326.3,43.5,326,43.7z"/>
	<path d="M118.9,170.8c0.4-0.2,0.8-0.6,1.3-0.7c1.9-0.1,3.7-0.3,5.4,0.8c1.5,1,3.2,1.5,4.8,2.4c0.5,0.2,0.8,0.8,1.1,1.2
		c-0.5,0.2-1.1,0.4-1.6,0.5c-1,0.1-1.7-0.2-2.4-1c-0.8-1-1.8-1.9-3.2-2c-0.2,0-0.5-0.2-0.7-0.2c-1.5-0.5-2.9-1.4-4.5-0.4
		C119,171.2,119,171,118.9,170.8z"/>
	<path d="M405.3,192.7c0.6-0.9,0.9-1.7,2-1.2c0.3,0.1,1-0.4,1.4-0.8c1-1,1.3-0.9,1.9,0.4c0.8,1.6-0.1,2.8-1,3.9
		c-0.6,0.7-1.5,0.3-1.7-0.3C407.5,193.3,406.8,192.6,405.3,192.7z"/>
	<path d="M139.7,176.8c-0.6,0.1-0.9,0.2-1.3,0.3c-0.8,0.2-1.7,0.5-2.5,0.7c-0.4,0.1-1,0-1.1-0.2c-0.3-0.7-0.5-1.4-0.5-2.1
		c0-0.1,0.7-0.4,1-0.4c1.4-0.1,2.7-0.1,3.8,0.9C139.3,176.1,139.4,176.4,139.7,176.8z"/>
	<path d="M345.3,192.2c0.3-0.5,0.6-1.2,1-1.8c0.5,0.5,1.1,0.8,1.4,1.4c0.3,0.7,0.5,1.5,0.4,2.3c0,0.4-0.7,0.9-1.1,0.9
		c-0.3,0.1-0.9-0.4-1.1-0.8C345.6,193.7,345.5,193,345.3,192.2z"/>
	<path d="M145.7,42.9c0,1.2-0.8,2.2-1.7,2.2c-0.2,0-0.6-0.1-0.6-0.1c-0.2-0.8-0.4-1.7-0.4-2.5c0-0.5,0.6-1,1-1.5
		c0.1-0.1,0.6,0,0.7,0.1C145.1,41.7,145.5,42.4,145.7,42.9z"/>
	<path d="M126.3,39.3c0.9,0.1,1.7,0.1,2.4,0.3c0.5,0.1,1,0.6,1.5,0.9c-0.5,0.6-0.9,1.4-1.6,1.8c-0.3,0.2-1.3-0.1-1.6-0.5
		C126.7,41,126.6,40.1,126.3,39.3z"/>
	<path d="M402.1,166.6c-0.2,1-0.4,1.9-0.7,2.8c-0.1,0.3-0.6,0.6-0.8,0.6c-0.3,0-0.7-0.5-0.7-0.8c0.1-1,0.3-2.1,0.6-3
		c0.1-0.3,0.7-0.4,1.1-0.6C401.8,165.9,401.9,166.3,402.1,166.6z"/>
	<path d="M140.5,55c-0.8,0.9-1.3,1.7-1.9,1.8c-0.4,0.1-1.4-0.8-1.4-1.3c0-0.8,0.5-1.7,1.6-1.6C139.3,53.9,139.7,54.4,140.5,55z"/>
	<path d="M380.2,37c0.3,0,0.7-0.1,1,0c0.4,0.1,0.7,0.5,1,0.7c-0.3,0.4-0.6,1.1-0.9,1.1c-0.9-0.1-1.8-0.4-2.6-0.6
		c-0.2-0.1-0.4-0.5-0.4-0.7c0-0.2,0.4-0.4,0.6-0.5C379.3,37,379.7,37.1,380.2,37C380.2,37,380.2,37,380.2,37z"/>
	<path d="M386.6,173.2c0.6,0.7,1.2,1.4,1.1,1.5c-0.5,0.7-1.2,1.3-1.9,2c-0.3-0.4-1-1-0.9-1.2C385.2,174.7,385.9,174.1,386.6,173.2z"
		/>
	<path d="M447,210c0.1,2.2-2.6,3.6-4,2.7c-0.2-0.1-0.1-0.9-0.1-0.9c0.8-0.2,1.6-0.1,2.3-0.4C445.9,211.2,446.4,210.5,447,210z"/>
	<path d="M129.7,37c0.9,0,1.7-0.1,2.5,0.1c0.3,0.1,0.7,0.8,0.6,1.2c-0.1,0.8-0.9,1.1-1.6,0.7c-0.7-0.3-1.2-0.9-1.8-1.4
		C129.6,37.4,129.6,37.2,129.7,37z"/>
	<path d="M148,84c-0.3-0.4-0.7-0.6-0.8-0.9c-0.2-0.8,1.3-2.3,2-2c0.4,0.1,0.9,1,0.8,1.1C149.5,82.8,148.8,83.4,148,84z"/>
	<path d="M378.4,47.4c-0.6-0.3-1.2-0.4-1.5-0.7c-0.2-0.2,0-1,0.3-1.2c0.4-0.2,1-0.3,1.5-0.1c0.5,0.2,0.8,0.7,1.2,1.1
		C379.4,46.8,378.9,47,378.4,47.4z"/>
	<path d="M45,91.7c0.3,0.2,0.7,0.2,0.7,0.4c0.1,0.2,0,0.6-0.1,0.7c-0.7,0.5-1.4,0.9-2.2,1.3c-0.2,0.1-0.7-0.1-0.8-0.2
		c-0.1-0.3,0-0.8,0.1-0.9C43.6,92.5,44.3,92.1,45,91.7z"/>
	<path d="M468.9,264.4c0.2-0.3,0.4-0.6,0.6-0.9c0.2,0.2,0.6,0.3,0.7,0.6c0.2,0.6,0.4,1.3,0.5,2c0,0.2-0.3,0.6-0.5,0.6
		c-0.2,0-0.5-0.2-0.6-0.4C469.3,265.7,469.2,265.1,468.9,264.4z"/>
	<path d="M405.1,186.6c0.4,0.6,0.8,1.1,1.1,1.6c0.2,0.3,0.1,0.8,0,1.2c-0.1,0.2-0.8,0.3-0.8,0.3c-0.4-0.8-0.7-1.6-1-2.5
		C404.4,187.1,404.8,186.9,405.1,186.6z"/>
	<path d="M410.4,216.5c-0.9,0.7-1.7,1.4-2.6,2c-0.2,0.1-0.6,0-0.9,0c0.1-0.3,0-0.7,0.2-0.9c0.2-0.3,0.5-0.5,0.8-0.6
		c0.8-0.3,1.6-0.5,2.5-0.7C410.3,216.4,410.3,216.4,410.4,216.5z"/>
	<path d="M32.3,69c1.1-0.1,2.2,1.4,1.8,2.2c-0.1,0.2-0.7,0.3-0.9,0.1c-0.5-0.5-0.9-1-1.2-1.6C32,69.5,32.2,69.2,32.3,69z"/>
	<path d="M66.1,110.1c-0.1-0.7-0.2-1.5-0.1-2.2c0-0.3,0.6-0.5,0.9-0.7c0.1,0.3,0.4,0.7,0.3,1c-0.1,0.7-0.5,1.3-0.7,2
		C66.4,110.1,66.3,110.1,66.1,110.1z"/>
	<path d="M288.4,83c-0.7,0.4-1.1,0.9-1.5,0.9c-0.3,0-0.8-0.6-0.8-0.8c0.1-0.4,0.6-0.8,0.9-0.9C287.3,82.1,287.7,82.5,288.4,83z"/>
	<path d="M144,47.5c-0.4-0.5-0.7-0.8-1-1.2c0.3-0.2,0.7-0.6,1-0.5c0.4,0.2,0.8,0.6,1.1,1C144.7,46.9,144.4,47.1,144,47.5z"/>
	<path d="M408.3,187.9c-0.1-0.5-0.3-1-0.3-1.5c0-0.3,0.3-0.6,0.4-1c0.2,0.3,0.6,0.6,0.6,0.9c0,0.5-0.2,1-0.4,1.5
		C408.5,187.9,408.4,187.9,408.3,187.9z"/>
	<path d="M136.7,94.5c-0.1,0.8-0.4,1.4-1.3,1.3c-0.2,0-0.5-0.5-0.4-0.6C135.3,94.4,135.9,94.2,136.7,94.5z"/>
	<path d="M399.4,216.7c-0.9,0.1-1.8,0.2-2.7,0.2c0-0.2,0-0.3,0-0.5c0.8-0.8,1.8-0.1,2.7-0.3C399.4,216.3,399.4,216.5,399.4,216.7z"
		/>
	<path d="M348.2,53.4c-0.5,0.3-0.8,0.7-1,0.7c-0.3-0.1-0.6-0.5-0.9-0.7c0.3-0.2,0.6-0.6,0.9-0.7C347.5,52.7,347.8,53.1,348.2,53.4z"
		/>
	<path d="M160.9,285.2c-0.8,1-1.6,1-2.4,0.8c-0.1,0-0.3-0.3-0.3-0.5c0-0.1,0.3-0.3,0.4-0.4C159.3,285.1,160,285.2,160.9,285.2z"/>
	<path d="M416.2,209c-0.8-0.1-1.6-0.2-2.4-0.2c0-0.1,0-0.3,0-0.4c0.8-0.3,1.7-0.5,2.5,0.1C416.3,208.6,416.2,208.8,416.2,209z"/>
	<path d="M413.9,202.7c-0.3,0.2-0.5,0.4-0.8,0.6c-0.2-0.3-0.5-0.6-0.5-0.9c0-0.2,0.4-0.6,0.6-0.7c0.3,0,0.7,0.2,1,0.4
		C414.2,202.4,414,202.5,413.9,202.7z"/>
	<path d="M404.9,202.7c-0.6,0.3-0.9,0.5-1.3,0.5c-0.2,0-0.4-0.3-0.7-0.4c0.3-0.2,0.5-0.6,0.8-0.7
		C403.9,202.1,404.3,202.4,404.9,202.7z"/>
	<path d="M306.2,68.5c-0.4-0.4-0.7-0.7-0.7-0.9c0-0.2,0.3-0.6,0.6-0.6c0.2,0,0.6,0.3,0.7,0.6C306.8,67.7,306.5,68,306.2,68.5z"/>
	<path d="M127.7,178.1c-0.2-0.2-0.4-0.4-0.7-0.6c0.3-0.2,0.5-0.5,0.8-0.5c0.2,0,0.7,0.3,0.7,0.5c0,0.3-0.2,0.7-0.3,1
		C128.1,178.4,127.9,178.3,127.7,178.1z"/>
	<path d="M254.6,147.2c-0.3,0.8-0.5,1.4-0.8,2c-0.1,0.2-0.5,0.3-0.8,0.5c-0.1,0-0.2,0-0.2-0.1c-0.7-0.4-1.3-0.8-2-1.2
		c0.6-0.2,1.3-0.5,1.9-0.7C253.3,147.4,253.9,147.3,254.6,147.2z"/>
	<path d="M245.8,142.2c0.1,1,0.2,2,0.2,3c0,0.2-0.3,0.5-0.6,0.6c-0.2,0-0.6-0.2-0.7-0.4C244.1,144.5,244.4,143.1,245.8,142.2z"/>
</g>
</svg>
